<svg id="round-account-button-with-user-inside" xmlns="http://www.w3.org/2000/svg" width="25" height="25" viewBox="0 0 25 25">
  <g id="account-circle">
    <path id="Path_390" data-name="Path 390" d="M12.5,0A12.5,12.5,0,1,0,25,12.5,12.537,12.537,0,0,0,12.5,0Zm0,3.75A3.683,3.683,0,0,1,16.25,7.5a3.683,3.683,0,0,1-3.75,3.75A3.683,3.683,0,0,1,8.75,7.5,3.683,3.683,0,0,1,12.5,3.75Zm0,17.75a9.119,9.119,0,0,1-7.5-4c0-2.5,5-3.875,7.5-3.875S20,15,20,17.5A9.119,9.119,0,0,1,12.5,21.5Z" fill="#334a90"/>
  </g>
</svg>
