<svg id="office-building" xmlns="http://www.w3.org/2000/svg" width="28.745" height="27.596" viewBox="0 0 28.745 27.596">
  <path id="Path_342" data-name="Path 342" d="M54.121,6.468H42.247V.539A.587.587,0,0,0,41.623,0h-15A.587.587,0,0,0,26,.539V27.057a.587.587,0,0,0,.625.539h27.5a.587.587,0,0,0,.625-.539V7.007A.587.587,0,0,0,54.121,6.468ZM42.247,7.546H53.5V21.128H42.247Zm-10,18.972V22.206H36v4.312Zm4.374-5.39h-5a.587.587,0,0,0-.625.539v4.851H27.25V1.078H41v25.44H37.248V21.667A.587.587,0,0,0,36.623,21.128Zm5.624,5.39V22.206H53.5v4.312Z" transform="translate(-26)" fill="#334a90"/>
  <path id="Path_343" data-name="Path 343" d="M136.624,42.157h1.25a.587.587,0,0,0,.625-.539V40.54a.587.587,0,0,0-.625-.539h-1.25a.587.587,0,0,0-.625.539v1.078A.587.587,0,0,0,136.624,42.157Z" transform="translate(-129.125 -37.845)" fill="#334a90"/>
  <path id="Path_344" data-name="Path 344" d="M136.624,112.157h1.25a.587.587,0,0,0,.625-.539V110.54a.587.587,0,0,0-.625-.539h-1.25a.587.587,0,0,0-.625.539v1.078A.587.587,0,0,0,136.624,112.157Z" transform="translate(-129.125 -104.072)" fill="#334a90"/>
  <path id="Path_345" data-name="Path 345" d="M136.624,182.157h1.25a.587.587,0,0,0,.625-.539V180.54a.587.587,0,0,0-.625-.539h-1.25a.587.587,0,0,0-.625.539v1.078A.587.587,0,0,0,136.624,182.157Z" transform="translate(-129.125 -170.299)" fill="#334a90"/>
  <path id="Path_346" data-name="Path 346" d="M136.624,252.156h1.25a.587.587,0,0,0,.625-.539v-1.078a.587.587,0,0,0-.625-.539h-1.25a.587.587,0,0,0-.625.539v1.078A.587.587,0,0,0,136.624,252.156Z" transform="translate(-129.125 -236.526)" fill="#334a90"/>
  <path id="Path_347" data-name="Path 347" d="M136.624,322.156h1.25a.587.587,0,0,0,.625-.539v-1.078a.587.587,0,0,0-.625-.539h-1.25a.587.587,0,0,0-.625.539v1.078A.587.587,0,0,0,136.624,322.156Z" transform="translate(-129.125 -302.753)" fill="#334a90"/>
  <path id="Path_348" data-name="Path 348" d="M66.626,42.157h1.25a.587.587,0,0,0,.625-.539V40.54A.587.587,0,0,0,67.876,40h-1.25A.587.587,0,0,0,66,40.54v1.078A.587.587,0,0,0,66.626,42.157Z" transform="translate(-63.501 -37.845)" fill="#334a90"/>
  <path id="Path_349" data-name="Path 349" d="M66.626,112.157h1.25a.587.587,0,0,0,.625-.539V110.54a.587.587,0,0,0-.625-.539h-1.25a.587.587,0,0,0-.625.539v1.078A.587.587,0,0,0,66.626,112.157Z" transform="translate(-63.501 -104.072)" fill="#334a90"/>
  <path id="Path_350" data-name="Path 350" d="M66.626,182.157h1.25a.587.587,0,0,0,.625-.539V180.54a.587.587,0,0,0-.625-.539h-1.25a.587.587,0,0,0-.625.539v1.078A.587.587,0,0,0,66.626,182.157Z" transform="translate(-63.501 -170.299)" fill="#334a90"/>
  <path id="Path_351" data-name="Path 351" d="M66.626,252.156h1.25a.587.587,0,0,0,.625-.539v-1.078a.587.587,0,0,0-.625-.539h-1.25a.587.587,0,0,0-.625.539v1.078A.587.587,0,0,0,66.626,252.156Z" transform="translate(-63.501 -236.526)" fill="#334a90"/>
  <path id="Path_352" data-name="Path 352" d="M66.626,322.156h1.25a.587.587,0,0,0,.625-.539v-1.078a.587.587,0,0,0-.625-.539h-1.25a.587.587,0,0,0-.625.539v1.078A.587.587,0,0,0,66.626,322.156Z" transform="translate(-63.501 -302.753)" fill="#334a90"/>
  <path id="Path_353" data-name="Path 353" d="M207.876,40h-1.25a.587.587,0,0,0-.625.539v1.078a.587.587,0,0,0,.625.539h1.25a.587.587,0,0,0,.625-.539V40.54A.587.587,0,0,0,207.876,40Z" transform="translate(-194.753 -37.845)" fill="#334a90"/>
  <path id="Path_354" data-name="Path 354" d="M207.876,110h-1.25a.587.587,0,0,0-.625.539v1.078a.587.587,0,0,0,.625.539h1.25a.587.587,0,0,0,.625-.539v-1.078A.587.587,0,0,0,207.876,110Z" transform="translate(-194.753 -104.071)" fill="#334a90"/>
  <path id="Path_355" data-name="Path 355" d="M207.876,180h-1.25a.587.587,0,0,0-.625.539v1.078a.587.587,0,0,0,.625.539h1.25a.587.587,0,0,0,.625-.539v-1.078A.587.587,0,0,0,207.876,180Z" transform="translate(-194.753 -170.298)" fill="#334a90"/>
  <path id="Path_356" data-name="Path 356" d="M207.876,250h-1.25a.587.587,0,0,0-.625.539v1.078a.587.587,0,0,0,.625.539h1.25a.587.587,0,0,0,.625-.539v-1.078A.587.587,0,0,0,207.876,250Z" transform="translate(-194.753 -236.526)" fill="#334a90"/>
  <path id="Path_357" data-name="Path 357" d="M207.876,320h-1.25a.587.587,0,0,0-.625.539v1.078a.587.587,0,0,0,.625.539h1.25a.587.587,0,0,0,.625-.539v-1.078A.587.587,0,0,0,207.876,320Z" transform="translate(-194.753 -302.753)" fill="#334a90"/>
  <path id="Path_358" data-name="Path 358" d="M392.874,180h-1.25a.587.587,0,0,0-.625.539v1.078a.587.587,0,0,0,.625.539h1.25a.587.587,0,0,0,.625-.539v-1.078A.587.587,0,0,0,392.874,180Z" transform="translate(-368.191 -170.298)" fill="#334a90"/>
  <path id="Path_359" data-name="Path 359" d="M392.874,250h-1.25a.587.587,0,0,0-.625.539v1.078a.587.587,0,0,0,.625.539h1.25a.587.587,0,0,0,.625-.539v-1.078A.587.587,0,0,0,392.874,250Z" transform="translate(-368.191 -236.526)" fill="#334a90"/>
  <path id="Path_360" data-name="Path 360" d="M392.874,320h-1.25a.587.587,0,0,0-.625.539v1.078a.587.587,0,0,0,.625.539h1.25a.587.587,0,0,0,.625-.539v-1.078A.587.587,0,0,0,392.874,320Z" transform="translate(-368.191 -302.753)" fill="#334a90"/>
  <path id="Path_361" data-name="Path 361" d="M322.876,180h-1.25a.587.587,0,0,0-.625.539v1.078a.587.587,0,0,0,.625.539h1.25a.587.587,0,0,0,.625-.539v-1.078A.587.587,0,0,0,322.876,180Z" transform="translate(-302.567 -170.298)" fill="#334a90"/>
  <path id="Path_362" data-name="Path 362" d="M322.876,250h-1.25a.587.587,0,0,0-.625.539v1.078a.587.587,0,0,0,.625.539h1.25a.587.587,0,0,0,.625-.539v-1.078A.587.587,0,0,0,322.876,250Z" transform="translate(-302.567 -236.526)" fill="#334a90"/>
  <path id="Path_363" data-name="Path 363" d="M322.876,320h-1.25a.587.587,0,0,0-.625.539v1.078a.587.587,0,0,0,.625.539h1.25a.587.587,0,0,0,.625-.539v-1.078A.587.587,0,0,0,322.876,320Z" transform="translate(-302.567 -302.753)" fill="#334a90"/>
</svg>
