<svg xmlns="http://www.w3.org/2000/svg" width="18.977" height="14.232" viewBox="0 0 18.977 14.232">
  <path id="Icon_metro-profile" data-name="Icon metro-profile" d="M22.12,9.745H20.793V7.754l-2.739-.042.014,2.033H9.836l.056-2.033L7.21,7.754V9.787L5.854,9.745A1.356,1.356,0,0,0,4.5,11.1v9.488a1.356,1.356,0,0,0,1.355,1.355H22.12a1.356,1.356,0,0,0,1.355-1.355V11.1A1.356,1.356,0,0,0,22.12,9.745ZM18.731,8.39h1.355V11.1H18.731ZM9.921,13.007A1.764,1.764,0,0,1,11.4,14.955,1.764,1.764,0,0,1,9.921,16.9a1.764,1.764,0,0,1-1.483-1.948A1.764,1.764,0,0,1,9.921,13.007ZM7.887,8.39H9.243V11.1H7.887ZM6.984,19.2s.161-1.289.526-1.532a5.2,5.2,0,0,1,1.416-.405s.682.729.972.729.971-.729.971-.729a5.182,5.182,0,0,1,1.417.405c.429.286.536,1.532.536,1.532H6.984Zm13.78-.642h-6.1v-.678h6.1Zm0-1.355h-6.1v-.678h6.1Zm0-1.355h-6.1v-.678h6.1Zm0-1.355h-6.1v-.678h6.1Z" transform="translate(-4.499 -7.712)" fill="#334a90"/>
</svg>
