<svg xmlns="http://www.w3.org/2000/svg" width="18.825" height="17.377" viewBox="0 0 18.825 17.377">
  <path id="Icon_ionic-md-business" data-name="Icon ionic-md-business" d="M13.014,8.36V4.5H3.375V21.877H22.2V8.36ZM7.231,19.945H5.3V18.013H7.231Zm0-3.86H5.3V14.152H7.231Zm0-3.86H5.3V10.292H7.231Zm0-3.865H5.3V6.428H7.231Zm3.856,11.585H9.158V18.013h1.928Zm0-3.86H9.158V14.152h1.928Zm0-3.86H9.158V10.292h1.928Zm0-3.865H9.158V6.428h1.928Zm9.186,11.585H13.014V18.013h1.928V16.085H13.014V14.152h1.928V12.22H13.014V10.292h7.259Zm-1.7-7.72H16.643v1.932h1.928Zm0,3.86H16.643v1.932h1.928Z" transform="translate(-3.375 -4.5)" fill="#334a90"/>
</svg>
