<svg xmlns="http://www.w3.org/2000/svg" width="96.292" height="96.292" viewBox="0 0 96.292 96.292">
  <g id="website_1_" data-name="website (1)" transform="translate(0)">
    <path id="Path_487" data-name="Path 487" d="M4,12H76.641V25.515H4Z" transform="translate(-4 1.515)" fill="none"/>
    <path id="Path_488" data-name="Path 488" d="M4,12H76.641V25.515H4Z" transform="translate(-4 1.515)" fill="#006ca9"/>
    <path id="Path_489" data-name="Path 489" d="M4,13H76.641V82.263H4Z" transform="translate(-4 2.204)" fill="#74e0ff"/>
    <path id="Path_490" data-name="Path 490" d="M4,12H76.641V25.515H4Z" transform="translate(-4 1.515)" fill="none"/>
    <path id="Path_491" data-name="Path 491" d="M4,12H76.641V25.515H4Z" transform="translate(-4 1.515)" fill="#334a90"/>
    <path id="Path_492" data-name="Path 492" d="M19,8H89.952V77.263H19Z" transform="translate(6.34 -1.243)" fill="#91d1f5"/>
    <path id="Path_493" data-name="Path 493" d="M19,8H89.952V21.515H19Z" transform="translate(6.34 -1.243)" fill="none"/>
    <path id="Path_494" data-name="Path 494" d="M19,8H89.952V21.515H19Z" transform="translate(6.34 -1.243)" fill="#006ca9"/>
    <path id="Path_495" data-name="Path 495" d="M19,8H89.952V77.263H19Z" transform="translate(6.34 -1.243)" fill="#41a0ff"/>
    <path id="Path_496" data-name="Path 496" d="M19,8H89.952V21.515H19Z" transform="translate(6.34 -1.243)" fill="none"/>
    <path id="Path_497" data-name="Path 497" d="M19,8H89.952V21.515H19Z" transform="translate(6.34 -1.243)" fill="#1f2f62"/>
    <path id="Path_498" data-name="Path 498" d="M11,4H81.952V73.263H11Z" transform="translate(0.825 -4)" fill="#91d1f5"/>
    <path id="Path_499" data-name="Path 499" d="M15,16H48.787V39.651H15Z" transform="translate(3.582 4.272)" fill="#46f8ff"/>
    <circle id="Ellipse_101" data-name="Ellipse 101" cx="3.37" cy="3.37" r="3.37" transform="translate(25.036 25.539)" fill="#ffc740"/>
    <path id="Path_500" data-name="Path 500" d="M20,35.515,31.825,22,43.651,35.515Z" transform="translate(7.029 8.408)" fill="#70a61b"/>
    <path id="Path_501" data-name="Path 501" d="M11,4H81.952V17.515H11Z" transform="translate(0.825 -4)" fill="none"/>
    <path id="Path_502" data-name="Path 502" d="M11,4H81.952V17.515H11Z" transform="translate(0.825 -4)" fill="#006ca9"/>
    <path id="Path_503" data-name="Path 503" d="M15,34H72.437V44.136H15Z" transform="translate(3.582 16.68)" fill="#fff"/>
    <path id="Path_504" data-name="Path 504" d="M11,4H81.952V73.263H11Z" transform="translate(0.825 -4)" fill="#fff"/>
    <path id="Path_505" data-name="Path 505" d="M15,16H48.787V39.651H15Z" transform="translate(3.582 4.272)" fill="#74e0ff"/>
    <circle id="Ellipse_102" data-name="Ellipse 102" cx="3.37" cy="3.37" r="3.37" transform="translate(25.036 25.539)" fill="#e0fbff"/>
    <path id="Path_506" data-name="Path 506" d="M20,35.515,31.825,22,43.651,35.515Z" transform="translate(7.029 8.408)" fill="#0d90a2"/>
    <path id="Path_507" data-name="Path 507" d="M11,4H81.952V17.515H11Z" transform="translate(0.825 -4)" fill="none"/>
    <path id="Path_508" data-name="Path 508" d="M11,4H81.952V17.515H11Z" transform="translate(0.825 -4)" fill="#334a90"/>
    <path id="Path_509" data-name="Path 509" d="M15,34H72.437V44.136H15Z" transform="translate(3.582 16.68)" fill="#35eee3"/>
    <path id="Path_510" data-name="Path 510" d="M67.2,64.462l-.826,1.654a3.183,3.183,0,0,0-.242,2.2l1.406,14.057H52.33V69.132a3.183,3.183,0,0,0-1.759-2.847l-.676-.338a3.174,3.174,0,0,1-1.424-1.424L45.8,59.176a3.209,3.209,0,0,0-.6-.826l-5-5a3.182,3.182,0,0,1,3.433-5.2l.948.38a3.183,3.183,0,0,0,4.37-2.953V33.183A3.181,3.181,0,0,1,52.134,30h.392a3.181,3.181,0,0,1,3.183,3.183v7.572A3.183,3.183,0,0,0,58.44,43.9l6.362.909a3.183,3.183,0,0,1,2.732,3.151V63.035A3.181,3.181,0,0,1,67.2,64.462Z" transform="translate(20.311 13.923)" fill="#ffcbbe"/>
    <path id="Path_511" data-name="Path 511" d="M14,7h3.379v3.379H14Z" transform="translate(2.893 -1.932)" fill="#fff"/>
    <path id="Path_512" data-name="Path 512" d="M18,7h3.379v3.379H18Z" transform="translate(5.65 -1.932)" fill="#35eee3"/>
    <path id="Path_513" data-name="Path 513" d="M22,7h3.379v3.379H22Z" transform="translate(8.408 -1.932)" fill="#00bbd5"/>
    <g id="Group_3196" data-name="Group 3196" transform="translate(57.437 20.272)">
      <path id="Path_514" data-name="Path 514" d="M38,16H48.136v3.379H38Z" transform="translate(-38 -16)" fill="#334a90"/>
      <path id="Path_515" data-name="Path 515" d="M38,20h6.757v3.379H38Z" transform="translate(-38 -13.243)" fill="#334a90"/>
      <path id="Path_516" data-name="Path 516" d="M44,20H54.136v3.379H44Z" transform="translate(-33.864 -13.243)" fill="#334a90"/>
      <path id="Path_517" data-name="Path 517" d="M38,24H58.272v3.379H38Z" transform="translate(-38 -10.485)" fill="#334a90"/>
      <path id="Path_518" data-name="Path 518" d="M46,16h6.757v3.379H46Z" transform="translate(-32.485 -16)" fill="#334a90"/>
    </g>
  </g>
</svg>
