<svg xmlns="http://www.w3.org/2000/svg" width="95.246" height="102.605" viewBox="0 0 95.246 102.605">
  <g id="brochure" transform="translate(0)">
    <g id="Group_3386" data-name="Group 3386" transform="translate(0 0)">
      <g id="Group_3385" data-name="Group 3385">
        <g id="Group_3384" data-name="Group 3384">
          <g id="Group_3377" data-name="Group 3377">
            <g id="Group_3376" data-name="Group 3376">
              <g id="Group_3375" data-name="Group 3375">
                <g id="Group_3374" data-name="Group 3374">
                  <g id="Group_3373" data-name="Group 3373">
                    <path id="Path_4740" data-name="Path 4740" d="M81.4,4.158a4.035,4.035,0,0,0-1.356-3.021.284.284,0,0,1,.09-.477l.028.02A3.872,3.872,0,0,0,77.969,0H22.254a3.891,3.891,0,0,0-3.891,3.891V86.527a3.891,3.891,0,0,0,3.891,3.891H77.969a3.891,3.891,0,0,0,3.891-3.891V12.187H81.4Z" transform="translate(-18.363 0)" fill="#00bbd5"/>
                  </g>
                  <path id="Path_4741" data-name="Path 4741" d="M208.536,6.528a3.887,3.887,0,0,0-1.722-3.23L180.5,13.4a5.789,5.789,0,0,0-3.714,5.4v.667h31.749V6.528Z" transform="translate(-145.039 -2.637)" fill="#0d90a2"/>
                </g>
              </g>
              <path id="Path_4742" data-name="Path 4742" d="M227.6,60.812H180.679a3.891,3.891,0,0,0-3.891,3.891v82.636a3.891,3.891,0,0,0,3.891,3.891H228.9a3.891,3.891,0,0,0,3.891-3.891v-80.1l-4.317-4.317A2.984,2.984,0,0,1,227.6,60.812Z" transform="translate(-145.039 -48.625)" fill="#74e0ff"/>
              <path id="Path_4743" data-name="Path 4743" d="M442.922,95.081l-6.7-6.7v81a3.891,3.891,0,0,1-3.891,3.891h8.395a3.891,3.891,0,0,0,3.891-3.891V95.539Z" transform="translate(-349.37 -70.669)" fill="#41a0ff"/>
              <path id="Path_4744" data-name="Path 4744" d="M434.237,73.5a3.891,3.891,0,0,1-3.891-3.891V60.812L443.03,73.5Z" transform="translate(-347.784 -48.625)" fill="#334a90"/>
            </g>
          </g>
          <g id="Group_3380" data-name="Group 3380" transform="translate(40.143 32.791)">
            <g id="Group_3379" data-name="Group 3379">
              <g id="Group_3378" data-name="Group 3378">
                <path id="Path_4745" data-name="Path 4745" d="M220.647,189.76h42.767a1.97,1.97,0,0,0,1.97-1.97V165.6a1.97,1.97,0,0,0-1.97-1.97H220.647a1.97,1.97,0,0,0-1.97,1.97V187.79A1.97,1.97,0,0,0,220.647,189.76Z" transform="translate(-218.677 -163.628)" fill="#f9f6f6"/>
              </g>
              <path id="Path_4746" data-name="Path 4746" d="M225.064,224.816h30.4L241.9,208.482a2.8,2.8,0,0,0-4.315,0L224.2,224.614A1.96,1.96,0,0,0,225.064,224.816Z" transform="translate(-223.093 -198.683)" fill="#35eee3"/>
              <path id="Path_4747" data-name="Path 4747" d="M351.459,243.261a1.96,1.96,0,0,0,.9-.219l-9.537-11.491a2.8,2.8,0,0,0-4.315,0l-9.719,11.71h22.671Z" transform="translate(-306.722 -217.129)" fill="#e2fffd"/>
            </g>
          </g>
          <g id="Group_3381" data-name="Group 3381" transform="translate(38.85 68.154)">
            <path id="Path_4748" data-name="Path 4748" d="M260.007,343.186H213.773a1.549,1.549,0,0,1,0-3.1h46.235a1.549,1.549,0,0,1,0,3.1Z" transform="translate(-212.224 -340.088)" fill="#eff3f5"/>
          </g>
          <g id="Group_3382" data-name="Group 3382" transform="translate(38.85 76.622)">
            <path id="Path_4749" data-name="Path 4749" d="M260.007,385.439H213.773a1.549,1.549,0,1,1,0-3.1h46.235a1.549,1.549,0,1,1,0,3.1Z" transform="translate(-212.224 -382.341)" fill="#eff3f5"/>
          </g>
          <g id="Group_3383" data-name="Group 3383" transform="translate(38.85 85.089)">
            <path id="Path_4750" data-name="Path 4750" d="M247.77,427.693h-34a1.549,1.549,0,1,1,0-3.1h34a1.549,1.549,0,1,1,0,3.1Z" transform="translate(-212.223 -424.595)" fill="#eff3f5"/>
          </g>
        </g>
        <path id="Path_4751" data-name="Path 4751" d="M77.24,108.7H53.477a1.186,1.186,0,0,1-1.186-1.186V93.644a1.186,1.186,0,0,1,1.186-1.186H77.24V108.7Z" transform="translate(-45.492 -73.929)" fill="#f9f6f6"/>
        <path id="Path_4752" data-name="Path 4752" d="M134.9,92.457h8.395V108.7H134.9Z" transform="translate(-111.544 -73.929)" fill="#e7ecf1"/>
        <path id="Path_4753" data-name="Path 4753" d="M77.24,225.991H53.477a1.186,1.186,0,0,1-1.186-1.186V210.93a1.186,1.186,0,0,1,1.186-1.186H77.24v16.247Z" transform="translate(-45.492 -167.711)" fill="#f9f6f6"/>
        <path id="Path_4754" data-name="Path 4754" d="M134.9,209.744h8.395v16.247H134.9Z" transform="translate(-111.544 -167.711)" fill="#e7ecf1"/>
      </g>
    </g>
    <g id="Group_3387" data-name="Group 3387" transform="translate(5.25 64.505)">
      <path id="Path_4755" data-name="Path 4755" d="M71.06,361.214H46.111a1.549,1.549,0,1,0,0,3.1H71.06Z" transform="translate(-44.562 -353.332)" fill="#eff3f5"/>
      <path id="Path_4756" data-name="Path 4756" d="M71.06,321.881H46.111a1.549,1.549,0,1,0,0,3.1H71.06Z" transform="translate(-44.562 -321.881)" fill="#eff3f5"/>
    </g>
  </g>
</svg>
