<svg xmlns="http://www.w3.org/2000/svg" xmlns:xlink="http://www.w3.org/1999/xlink" width="148" height="148" viewBox="0 0 148 148">
  <defs>
    <filter id="Path_4684" x="0" y="0" width="148" height="148" filterUnits="userSpaceOnUse">
      <feOffset dy="3" input="SourceAlpha"/>
      <feGaussianBlur stdDeviation="10" result="blur"/>
      <feFlood flood-color="#434343" flood-opacity="0.482"/>
      <feComposite operator="in" in2="blur"/>
      <feComposite in="SourceGraphic"/>
    </filter>
    <linearGradient id="linear-gradient" x1="0.5" x2="0.5" y2="1" gradientUnits="objectBoundingBox">
      <stop offset="0" stop-color="#56d9ff"/>
      <stop offset="1" stop-color="#3f99ff"/>
    </linearGradient>
  </defs>
  <g id="Group_3345" data-name="Group 3345" transform="translate(-1582 -935)">
    <g transform="matrix(1, 0, 0, 1, 1582, 935)" filter="url(#Path_4684)">
      <path id="Path_4684-2" data-name="Path 4684" d="M44,0A44,44,0,1,1,0,44,44,44,0,0,1,44,0Z" transform="translate(30 27)" fill="#fafafb"/>
    </g>
    <path id="Icon_ionic-md-text" data-name="Icon ionic-md-text" d="M39.892,4.5H7.792C5.529,4.5,4.5,6.352,4.5,8.615V44.008l6.585-6.585H39.892a4.127,4.127,0,0,0,4.115-4.115V8.615A4.127,4.127,0,0,0,39.892,4.5ZM18.328,22.814H14.377V18.7h3.951Zm7.9,0H22.279V18.7h3.951Zm7.9,0H30.18V18.7h3.951Z" transform="translate(1631.5 981.5)" fill="url(#linear-gradient)"/>
  </g>
</svg>
