<svg xmlns="http://www.w3.org/2000/svg" width="23.607" height="21.739" viewBox="0 0 23.607 21.739">
  <g id="partners" transform="translate(0 0)">
    <path id="Path_364" data-name="Path 364" d="M22.624,13.364a4.772,4.772,0,0,0-1.579-1.231,3.254,3.254,0,0,0,.515-1.753V8.748a3.645,3.645,0,0,0-3.782-3.482,4.03,4.03,0,0,0-2.064.564V2.544A2.663,2.663,0,0,0,12.951,0H6.7V2.57A2.492,2.492,0,0,0,7.884,4.655v1.17a4.031,4.031,0,0,0-2.055-.559A3.645,3.645,0,0,0,2.047,8.748v1.633a3.254,3.254,0,0,0,.515,1.753A4.771,4.771,0,0,0,.983,13.364,4.164,4.164,0,0,0,0,16.045v5.694H23.607V16.045a4.164,4.164,0,0,0-.983-2.681ZM8.086,1.274h4.866a1.33,1.33,0,0,1,1.38,1.27v1.3H9.465a1.33,1.33,0,0,1-1.38-1.27Zm6.245,3.84V6.84A2.44,2.44,0,0,1,11.8,9.17,2.44,2.44,0,0,1,9.267,6.84V5.108q.1.006.2.006h4.866ZM5.148,20.465H1.383v-4.42a3.179,3.179,0,0,1,2.126-2.917,3.929,3.929,0,0,0,1.639.677v6.66Zm0-8.065v.1A2.245,2.245,0,0,1,3.43,10.381V8.748a2.312,2.312,0,0,1,2.4-2.208A2.412,2.412,0,0,1,8.086,7.983a3.478,3.478,0,0,0,.426.813A3.76,3.76,0,0,0,5.148,12.4Zm5.96,8.065H6.531V12.4A2.443,2.443,0,0,1,8.68,10.06a13.008,13.008,0,0,0,.149,1.552,8.494,8.494,0,0,0,2.278,4.822Zm-1.04-10.394a4.215,4.215,0,0,0,3.466,0A8.617,8.617,0,0,1,11.8,15.225,8.641,8.641,0,0,1,10.067,10.072Zm7,10.394H12.491V16.435a8.5,8.5,0,0,0,2.278-4.825,13.022,13.022,0,0,0,.149-1.549,2.443,2.443,0,0,1,2.149,2.34ZM15.086,8.8a3.479,3.479,0,0,0,.423-.805l.008,0A2.411,2.411,0,0,1,17.778,6.54a2.312,2.312,0,0,1,2.4,2.208v1.633A2.246,2.246,0,0,1,18.45,12.5v-.1A3.761,3.761,0,0,0,15.086,8.8Zm7.137,11.67H18.45V13.807a3.93,3.93,0,0,0,1.648-.679,3.179,3.179,0,0,1,2.126,2.917Z" transform="translate(0 0)" fill="#334a90"/>
  </g>
</svg>
