<svg xmlns="http://www.w3.org/2000/svg" width="28.5" height="21" viewBox="0 0 28.5 21">
  <path id="Icon_material-view-week" data-name="Icon material-view-week" d="M9,7.5H4.5A1.5,1.5,0,0,0,3,9V27a1.5,1.5,0,0,0,1.5,1.5H9A1.5,1.5,0,0,0,10.5,27V9A1.5,1.5,0,0,0,9,7.5Zm21,0H25.5A1.5,1.5,0,0,0,24,9V27a1.5,1.5,0,0,0,1.5,1.5H30A1.5,1.5,0,0,0,31.5,27V9A1.5,1.5,0,0,0,30,7.5Zm-10.5,0H15A1.5,1.5,0,0,0,13.5,9V27A1.5,1.5,0,0,0,15,28.5h4.5A1.5,1.5,0,0,0,21,27V9A1.5,1.5,0,0,0,19.5,7.5Z" transform="translate(-3 -7.5)" fill="#334a90"/>
</svg>
