<svg xmlns="http://www.w3.org/2000/svg" width="94.66" height="96.292" viewBox="0 0 94.66 96.292">
  <g id="web-design" transform="translate(0)">
    <g id="Group_3193" data-name="Group 3193" transform="translate(0 0)">
      <g id="flat_8_">
        <path id="Path_456" data-name="Path 456" d="M217.975,501.058l-4.407-14.689H197.247l-4.407,14.689h-5.386v3.264H223.36v-3.264Z" transform="translate(-158.078 -408.031)" fill="#d3d3d3"/>
        <path id="Path_457" data-name="Path 457" d="M9.962,81.062a4.9,4.9,0,0,0-4.9,4.9v50.594h94.66V85.958a4.9,4.9,0,0,0-4.9-4.9Z" transform="translate(-5.066 -68.005)" fill="#41a0ff"/>
        <path id="Path_458" data-name="Path 458" d="M5.066,425.573v4.9a4.9,4.9,0,0,0,4.9,4.9H94.83a4.9,4.9,0,0,0,4.9-4.9v-4.9Z" transform="translate(-5.066 -357.026)" fill="#d3d3d3"/>
        <path id="Path_459" data-name="Path 459" d="M136.042,0H70.759a4.9,4.9,0,0,0-4.9,4.9V63.651h75.075V4.9A4.9,4.9,0,0,0,136.042,0Z" transform="translate(-56.07)" fill="#9fe9ff"/>
        <path id="Path_460" data-name="Path 460" d="M161.544,0h-1.632L96.261,63.651H166.44V4.9A4.9,4.9,0,0,0,161.544,0Z" transform="translate(-81.572)" fill="#74e0ff"/>
        <rect id="Rectangle_1568" data-name="Rectangle 1568" width="3.264" height="3.264" transform="translate(14.689 4.896)" fill="#334a90"/>
        <rect id="Rectangle_1569" data-name="Rectangle 1569" width="3.264" height="3.264" transform="translate(21.217 4.896)" fill="#334a90"/>
        <rect id="Rectangle_1570" data-name="Rectangle 1570" width="3.264" height="3.264" transform="translate(27.745 4.896)" fill="#334a90"/>
        <rect id="Rectangle_1571" data-name="Rectangle 1571" width="65.283" height="3.264" transform="translate(14.689 11.424)" fill="#334a90"/>
        <path id="Path_461" data-name="Path 461" d="M108.025,121.592h13.057a1.633,1.633,0,0,1,1.632,1.632v9.792a1.633,1.633,0,0,1-1.632,1.632H108.025a1.633,1.633,0,0,1-1.632-1.632v-9.792A1.633,1.633,0,0,1,108.025,121.592Z" transform="translate(-90.072 -102.007)" fill="#35eee3"/>
        <path id="Path_462" data-name="Path 462" d="M249.883,121.592H262.94a1.633,1.633,0,0,1,1.632,1.632v9.792a1.633,1.633,0,0,1-1.632,1.632H249.883a1.633,1.633,0,0,1-1.632-1.632v-9.792A1.633,1.633,0,0,1,249.883,121.592Z" transform="translate(-209.081 -102.007)" fill="#00bbd5"/>
        <path id="Path_463" data-name="Path 463" d="M391.741,121.592H404.8a1.633,1.633,0,0,1,1.632,1.632v9.792a1.633,1.633,0,0,1-1.632,1.632H391.741a1.633,1.633,0,0,1-1.632-1.632v-9.792A1.633,1.633,0,0,1,391.741,121.592Z" transform="translate(-328.09 -102.007)" fill="#00bbd5"/>
        <path id="Path_464" data-name="Path 464" d="M108.025,243.185h13.057a1.633,1.633,0,0,1,1.632,1.632v9.792a1.633,1.633,0,0,1-1.632,1.632H108.025a1.633,1.633,0,0,1-1.632-1.632v-9.792A1.633,1.633,0,0,1,108.025,243.185Z" transform="translate(-90.072 -204.015)" fill="#00bbd5"/>
        <path id="Path_465" data-name="Path 465" d="M249.883,243.185H262.94a1.633,1.633,0,0,1,1.632,1.632v9.792a1.633,1.633,0,0,1-1.632,1.632H249.883a1.633,1.633,0,0,1-1.632-1.632v-9.792A1.633,1.633,0,0,1,249.883,243.185Z" transform="translate(-209.081 -204.015)" fill="#0d90a2"/>
        <path id="Path_466" data-name="Path 466" d="M391.741,243.185H404.8a1.633,1.633,0,0,1,1.632,1.632v9.792a1.633,1.633,0,0,1-1.632,1.632H391.741a1.633,1.633,0,0,1-1.632-1.632v-9.792A1.633,1.633,0,0,1,391.741,243.185Z" transform="translate(-328.09 -204.015)" fill="#41a0ff"/>
        <path id="Path_467" data-name="Path 467" d="M121.082,364.777H108.025a1.633,1.633,0,0,0-1.632,1.632v3.264h16.321v-3.264A1.633,1.633,0,0,0,121.082,364.777Z" transform="translate(-90.072 -306.023)" fill="#0d90a2"/>
        <path id="Path_468" data-name="Path 468" d="M262.939,364.777H249.882a1.633,1.633,0,0,0-1.632,1.632v3.264h16.321v-3.264A1.632,1.632,0,0,0,262.939,364.777Z" transform="translate(-209.08 -306.023)" fill="#334a90"/>
        <path id="Path_469" data-name="Path 469" d="M404.8,364.777H391.74a1.633,1.633,0,0,0-1.632,1.632v3.264h16.321v-3.264A1.632,1.632,0,0,0,404.8,364.777Z" transform="translate(-328.09 -306.023)" fill="#00bbd5"/>
        <path id="Path_470" data-name="Path 470" d="M258.39,491.266l-1.469-4.9H240.6l-1.469,4.9Z" transform="translate(-201.431 -408.031)" fill="#434343"/>
        <rect id="Rectangle_1572" data-name="Rectangle 1572" width="4.896" height="55.49" transform="translate(84.868 13.057)" fill="#197fe5"/>
        <rect id="Rectangle_1573" data-name="Rectangle 1573" width="75.075" height="4.896" transform="translate(9.793 63.651)" fill="#71c4d1"/>
      </g>
    </g>
  </g>
</svg>
