<svg xmlns="http://www.w3.org/2000/svg" xmlns:xlink="http://www.w3.org/1999/xlink" width="1000" height="1000" viewBox="0 0 1000 1000">
  <defs>
    <radialGradient id="radial-gradient" cx="0.5" cy="0.5" r="0.5" gradientUnits="objectBoundingBox">
      <stop offset="0" stop-color="#ff7c36"/>
      <stop offset="1" stop-color="#e04e00"/>
    </radialGradient>
    <clipPath id="clip-Sign_In_3">
      <rect width="1000" height="1000"/>
    </clipPath>
  </defs>
  <g id="Sign_In_3" data-name="Sign In – 3" clip-path="url(#clip-Sign_In_3)">
    <rect width="1000" height="1000" fill="#434343"/>
    <path id="Rectangle_1459" data-name="Rectangle 1459" d="M10,0H1240.888a10,10,0,0,1,10,10V1066.792a0,0,0,0,1,0,0H0a0,0,0,0,1,0,0V10A10,10,0,0,1,10,0Z" transform="translate(-125 -32.999)" fill="url(#radial-gradient)"/>
    <g id="Group_3113" data-name="Group 3113" transform="translate(114 311.399)">
      <text id="Akza" transform="translate(10 269.441)" fill="#fff" font-size="274" font-family="XbkaRegular, Xbka"><tspan x="0" y="0">Akza</tspan></text>
      <g id="Ellipse_36" data-name="Ellipse 36" transform="translate(221.822 -0.211)" fill="none" stroke="#fff" stroke-width="15">
        <ellipse cx="224.174" cy="188.813" rx="224.174" ry="188.813" stroke="none"/>
        <ellipse cx="224.174" cy="188.813" rx="216.674" ry="181.313" fill="none"/>
      </g>
    </g>
  </g>
</svg>
