<svg id="email_2_" data-name="email (2)" xmlns="http://www.w3.org/2000/svg" width="25" height="19.043" viewBox="0 0 25 19.043">
  <g id="Group_3137" data-name="Group 3137" transform="translate(0 0)">
    <path id="Path_341" data-name="Path 341" d="M22.8,61H2.2A2.2,2.2,0,0,0,0,63.2V77.846a2.2,2.2,0,0,0,2.2,2.2H22.8a2.2,2.2,0,0,0,2.2-2.2V63.2A2.2,2.2,0,0,0,22.8,61Zm-.3,1.465-9.953,9.953L2.508,62.465ZM1.465,77.542V63.494l7.055,6.994ZM2.5,78.578,9.56,71.519l2.473,2.452a.732.732,0,0,0,1.034,0l2.412-2.412L22.5,78.578Zm21.034-1.036-7.021-7.021L23.535,63.5Z" transform="translate(0 -61)" fill="#334a90"/>
  </g>
</svg>
