<svg xmlns="http://www.w3.org/2000/svg" width="111.998" height="111.53" viewBox="0 0 111.998 111.53">
  <g id="Flat" transform="translate(0.469 0)">
    <path id="Path_4689" data-name="Path 4689" d="M335.075,231.692v11.538H312V231.692a3.843,3.843,0,0,0,3.846-3.846V224h15.384v3.846a3.841,3.841,0,0,0,3.846,3.846Z" transform="translate(-242.775 -175.926)" fill="#fdc8a2"/>
    <path id="Path_4690" data-name="Path 4690" d="M341.379,229.346a18.293,18.293,0,0,1-16.419.757,3.836,3.836,0,0,0,.731-2.257V224h15.384v3.846a3.811,3.811,0,0,0,.305,1.5Z" transform="translate(-252.62 -175.926)" fill="#fdbf92"/>
    <path id="Path_4691" data-name="Path 4691" d="M228.791,263.253,224,275.229h15.383v28.844H274V275.229h13.461v-7.692A11.538,11.538,0,0,0,275.919,256h-7.692l-2.157,2.876a12.039,12.039,0,0,1-20.4-1.839L245.152,256H239.5a11.538,11.538,0,0,0-10.713,7.253Z" transform="translate(-175.927 -200.234)" fill="#41a0ff"/>
    <path id="Path_4692" data-name="Path 4692" d="M424,304h3.846v7.692H424Z" transform="translate(-327.854 -236.697)" fill="#197fe5"/>
    <path id="Path_4693" data-name="Path 4693" d="M326.576,308.518A21.182,21.182,0,0,1,316,305.685l1.923-3.331a17.306,17.306,0,0,0,16.2.588L335.8,306.4A21.274,21.274,0,0,1,326.576,308.518Z" transform="translate(-245.814 -235.447)" fill="#197fe5"/>
    <path id="Path_4694" data-name="Path 4694" d="M191.384,364.844H176L187.538,336h15.384Z" transform="translate(-139.465 -261.005)" fill="#fdc8a2"/>
    <path id="Path_4695" data-name="Path 4695" d="M5.769,0H9.615V11.538H5.769A5.769,5.769,0,1,1,5.769,0Z" transform="translate(103.838 36.536) rotate(180)" fill="#fdb683"/>
    <path id="Path_4696" data-name="Path 4696" d="M261.769,128h3.846v11.538h-3.846a5.769,5.769,0,1,1,0-11.538Z" transform="translate(-200.236 -103.001)" fill="#fdb683"/>
    <path id="Path_4697" data-name="Path 4697" d="M291.538,64H305a11.538,11.538,0,0,1,11.538,11.538v12.5a18.268,18.268,0,0,1-36.536,0v-12.5A11.538,11.538,0,0,1,291.538,64Z" transform="translate(-218.467 -54.385)" fill="#fdc8a2"/>
    <path id="Path_4698" data-name="Path 4698" d="M395.538,61.152,391.3,59.739A10.672,10.672,0,0,1,384,49.615V40a11.538,11.538,0,0,1,11.538,11.538Z" transform="translate(-297.469 -36.154)" fill="#1f1f1f"/>
    <path id="Path_4699" data-name="Path 4699" d="M292.844,27.846v9.615a45.734,45.734,0,0,1-12.134,5.728,45.789,45.789,0,0,1-13.271,1.964H264V39.383A15.384,15.384,0,0,1,279.384,24h7.237a6.956,6.956,0,0,1,6.224,3.847Z" transform="translate(-206.313 -24)" fill="#1f1f1f"/>
    <path id="Path_4700" data-name="Path 4700" d="M288.436,53.023c-.255.255-6.451,6.269-24.224,8.242l-.212.019v-1.93a15.322,15.322,0,0,1,.123-1.949,56.257,56.257,0,0,0,16.816-4.233,18.484,18.484,0,0,0,4.788-2.882Z" transform="translate(-206.313 -43.97)" fill="#151515"/>
    <path id="Path_4701" data-name="Path 4701" d="M281.907,44.267c-.173.087-4.346,2.125-12.4,2.125l-.788-.038a15.179,15.179,0,0,1,2.259-3.831c6.079-.214,9.184-1.685,9.218-1.7Z" transform="translate(-209.898 -36.777)" fill="#151515"/>
    <path id="Path_4702" data-name="Path 4702" d="M307.846,135.692a3.846,3.846,0,1,1,3.846-3.846A3.846,3.846,0,0,1,307.846,135.692Z" transform="translate(-236.698 -103.001)" fill="#844e3a"/>
    <path id="Path_4703" data-name="Path 4703" d="M371.846,135.692a3.846,3.846,0,1,1,3.846-3.846A3.846,3.846,0,0,1,371.846,135.692Z" transform="translate(-285.314 -103.001)" fill="#844e3a"/>
    <path id="Path_4704" data-name="Path 4704" d="M330.454,175.447a12.489,12.489,0,0,1-6.818-2.021l2.1-3.224a8.659,8.659,0,0,0,9.44,0l2.1,3.224A12.489,12.489,0,0,1,330.454,175.447Z" transform="translate(-251.615 -135.059)" fill="#fcb079"/>
    <path id="Path_4705" data-name="Path 4705" d="M24,456H135.53v7.692H24Z" transform="translate(-24.001 -352.161)" fill="#00bbd5"/>
    <rect id="Rectangle_2005" data-name="Rectangle 2005" width="66" height="46" rx="23" transform="translate(-0.469 42.462)" fill="#d3d3d3"/>
    <g id="Group_3368" data-name="Group 3368" transform="translate(5.768 49.997)">
      <path id="Path_4706" data-name="Path 4706" d="M96,232h7.692v3.846H96Z" transform="translate(-84.462 -232)" fill="#c6c6c4"/>
      <path id="Path_4707" data-name="Path 4707" d="M144,232h7.692v3.846H144Z" transform="translate(-120.925 -232)" fill="#c6c6c4"/>
      <path id="Path_4708" data-name="Path 4708" d="M192,232h7.692v3.846H192Z" transform="translate(-157.387 -232)" fill="#c6c6c4"/>
      <path id="Path_4709" data-name="Path 4709" d="M240,232h7.692v3.846H240Z" transform="translate(-193.849 -232)" fill="#c6c6c4"/>
      <path id="Path_4710" data-name="Path 4710" d="M48,232h7.692v3.846H48Z" transform="translate(-48 -232)" fill="#c6c6c4"/>
    </g>
    <path id="Path_4711" data-name="Path 4711" d="M160,355.538h7.692L165.769,344H160Z" transform="translate(-127.311 -267.082)" fill="#cececc"/>
    <path id="Path_4712" data-name="Path 4712" d="M112,424h23.075v7.692H112Z" transform="translate(-90.848 -327.853)" fill="#d5d5d3"/>
    <path id="Path_4713" data-name="Path 4713" d="M99.229,370.921H80L91.538,344H105Z" transform="translate(-66.54 -267.082)" fill="#dfdfdd"/>
    <path id="Path_4714" data-name="Path 4714" d="M240,424h23.075v7.692H240Z" transform="translate(-188.081 -327.853)" fill="#d5d5d3"/>
    <path id="Path_4715" data-name="Path 4715" d="M328.69,336v15.384h-25A7.692,7.692,0,0,0,296,359.075v3.846a1.923,1.923,0,0,0,1.923,1.923H328.69a13.461,13.461,0,0,0,13.461-13.461V336Z" transform="translate(-230.621 -261.005)" fill="#fdc8a2"/>
  </g>
</svg>
