<svg xmlns="http://www.w3.org/2000/svg" width="30.032" height="30.033" viewBox="0 0 30.032 30.033">
  <path id="target_2_" data-name="target (2)" d="M15.533,1.033A14.481,14.481,0,0,0,8.876,2.654l-2.4-2.4A.881.881,0,0,0,5.031.573L3.82,3.82.573,5.03A.881.881,0,0,0,.258,6.479l2.4,2.4A14.5,14.5,0,1,0,15.533,1.033Zm0,19.272a4.772,4.772,0,1,0-2.692-8.71L10.626,9.38A7.883,7.883,0,1,1,9.38,10.626L11.6,12.841A4.769,4.769,0,0,0,15.533,20.3Zm.623-5.4-2.035-2.035a3.013,3.013,0,1,1-1.246,1.246l2.035,2.035a.881.881,0,0,0,1.246-1.246ZM6.2,2.473,9.168,5.438l-.381,2.1L5.529,4.282ZM2.473,6.2l1.809-.674L7.541,8.786l-2.1.381ZM15.533,28.27A12.734,12.734,0,0,1,3.971,10.192l.547.547a.881.881,0,0,0,.78.244l1.941-.352A9.643,9.643,0,1,0,10.632,7.24L10.984,5.3a.881.881,0,0,0-.244-.78l-.547-.547a12.737,12.737,0,1,1,5.34,24.3Z" transform="translate(0 0.001)"/>
</svg>
