<svg xmlns="http://www.w3.org/2000/svg" width="30.072" height="30.072" viewBox="0 0 30.072 30.072">
  <g id="settings" transform="translate(0 0)">
    <path id="Path_4791" data-name="Path 4791" d="M15.979,30.072H14.092A2.772,2.772,0,0,1,11.324,27.3v-.639a12.14,12.14,0,0,1-1.885-.783l-.452.452a2.768,2.768,0,0,1-3.915,0L3.737,25a2.768,2.768,0,0,1,0-3.916l.452-.452a12.141,12.141,0,0,1-.783-1.885H2.768A2.772,2.772,0,0,1,0,15.98V14.092a2.772,2.772,0,0,1,2.768-2.768h.638a12.144,12.144,0,0,1,.783-1.885l-.452-.452a2.768,2.768,0,0,1,0-3.916L5.071,3.737a2.768,2.768,0,0,1,3.915,0l.452.452a12.151,12.151,0,0,1,1.885-.783V2.768A2.771,2.771,0,0,1,14.092,0h1.887a2.771,2.771,0,0,1,2.768,2.768v.639a12.14,12.14,0,0,1,1.885.783l.452-.452a2.768,2.768,0,0,1,3.915,0l1.334,1.334a2.768,2.768,0,0,1,0,3.916l-.452.452a12.141,12.141,0,0,1,.783,1.885H27.3a2.772,2.772,0,0,1,2.768,2.768V15.98A2.772,2.772,0,0,1,27.3,18.748h-.638a12.144,12.144,0,0,1-.783,1.885l.452.452a2.768,2.768,0,0,1,0,3.916L25,26.335a2.768,2.768,0,0,1-3.915,0l-.452-.452a12.151,12.151,0,0,1-1.885.783V27.3A2.771,2.771,0,0,1,15.979,30.072Zm-6.246-6.04a10.385,10.385,0,0,0,2.692,1.117.881.881,0,0,1,.661.853v1.3a1.007,1.007,0,0,0,1.006,1.006h1.887A1.007,1.007,0,0,0,16.986,27.3V26a.881.881,0,0,1,.661-.853,10.385,10.385,0,0,0,2.692-1.117.881.881,0,0,1,1.071.135l.921.921a1.006,1.006,0,0,0,1.423,0l1.335-1.335a1.006,1.006,0,0,0,0-1.423l-.922-.922a.881.881,0,0,1-.135-1.071,10.383,10.383,0,0,0,1.117-2.692A.881.881,0,0,1,26,16.986h1.3A1.007,1.007,0,0,0,28.31,15.98V14.092A1.007,1.007,0,0,0,27.3,13.086H26a.881.881,0,0,1-.853-.661,10.385,10.385,0,0,0-1.117-2.692.881.881,0,0,1,.135-1.071l.921-.921a1.006,1.006,0,0,0,0-1.423L23.755,4.983a1.006,1.006,0,0,0-1.423,0L21.41,5.9a.881.881,0,0,1-1.071.135,10.385,10.385,0,0,0-2.692-1.117.881.881,0,0,1-.661-.853v-1.3A1.007,1.007,0,0,0,15.98,1.762H14.092a1.007,1.007,0,0,0-1.006,1.006v1.3a.881.881,0,0,1-.661.853A10.385,10.385,0,0,0,9.733,6.04.881.881,0,0,1,8.662,5.9L7.74,4.983a1.006,1.006,0,0,0-1.423,0L4.983,6.317a1.006,1.006,0,0,0,0,1.423l.922.922A.881.881,0,0,1,6.04,9.733a10.383,10.383,0,0,0-1.117,2.692.881.881,0,0,1-.853.661h-1.3a1.008,1.008,0,0,0-1.006,1.006V15.98a1.007,1.007,0,0,0,1.006,1.006h1.3a.881.881,0,0,1,.853.661A10.385,10.385,0,0,0,6.04,20.339.881.881,0,0,1,5.9,21.41l-.921.921a1.006,1.006,0,0,0,0,1.423l1.335,1.335a1.006,1.006,0,0,0,1.423,0l.922-.922a.885.885,0,0,1,1.072-.135Z" transform="translate(0 0)"/>
    <path id="Path_4792" data-name="Path 4792" d="M151.143,157.686a6.543,6.543,0,1,1,6.543-6.543A6.55,6.55,0,0,1,151.143,157.686Zm0-11.324a4.781,4.781,0,1,0,4.781,4.781,4.786,4.786,0,0,0-4.781-4.781Z" transform="translate(-136.107 -136.107)"/>
  </g>
</svg>
