<svg xmlns="http://www.w3.org/2000/svg" width="28.985" height="25" viewBox="0 0 28.985 25">
  <path id="globe" d="M24.738,3.663a16.16,16.16,0,0,0-20.491,0,11.317,11.317,0,0,0,0,17.674,16.16,16.16,0,0,0,20.491,0A11.317,11.317,0,0,0,24.738,3.663Zm-.606,15.892a14.6,14.6,0,0,0-2.164-1.382,17.667,17.667,0,0,0,.874-4.877H27.1a10.071,10.071,0,0,1-2.97,6.259ZM1.883,13.3h4.26a17.667,17.667,0,0,0,.874,4.877,14.6,14.6,0,0,0-2.164,1.382A10.071,10.071,0,0,1,1.883,13.3Zm2.97-7.852A14.6,14.6,0,0,0,7.017,6.827,17.667,17.667,0,0,0,6.143,11.7H1.883A10.071,10.071,0,0,1,4.853,5.444ZM13.57,6.991a14.181,14.181,0,0,1-4.3-.941c.783-1.739,2.226-3.824,4.3-4.341Zm0,1.6V11.7H7.991a16.378,16.378,0,0,1,.7-4.129A16.306,16.306,0,0,0,13.57,8.587Zm0,4.709v3.116a16.306,16.306,0,0,0-4.879,1.013,16.378,16.378,0,0,1-.7-4.129Zm0,4.712v5.282c-2.078-.517-3.521-2.6-4.3-4.341A14.181,14.181,0,0,1,13.57,18.008Zm1.847,0a14.181,14.181,0,0,1,4.3.941c-.783,1.739-2.226,3.824-4.3,4.341Zm0-1.6V13.3H21a16.378,16.378,0,0,1-.7,4.129,16.306,16.306,0,0,0-4.879-1.013Zm0-4.709V8.587a16.306,16.306,0,0,0,4.879-1.013A16.378,16.378,0,0,1,21,11.7Zm0-4.712V1.71c2.078.517,3.521,2.6,4.3,4.341A14.183,14.183,0,0,1,15.416,6.991ZM19.564,2.5a12.99,12.99,0,0,1,3.273,1.8,12.7,12.7,0,0,1-1.485.972A11.634,11.634,0,0,0,19.564,2.5ZM7.634,5.28a12.7,12.7,0,0,1-1.485-.972A12.99,12.99,0,0,1,9.422,2.5,11.638,11.638,0,0,0,7.634,5.28Zm0,14.439a11.635,11.635,0,0,0,1.788,2.775,12.99,12.99,0,0,1-3.273-1.8A12.7,12.7,0,0,1,7.634,19.719Zm13.717,0a12.7,12.7,0,0,1,1.485.972,12.99,12.99,0,0,1-3.273,1.8,11.634,11.634,0,0,0,1.788-2.775ZM22.843,11.7a17.666,17.666,0,0,0-.874-4.877,14.6,14.6,0,0,0,2.164-1.382A10.071,10.071,0,0,1,27.1,11.7Z" transform="translate(0 0)" fill="#334a90"/>
</svg>
