<svg xmlns="http://www.w3.org/2000/svg" width="50" height="41.665" viewBox="0 0 50 41.665">
  <g id="Group_3171" data-name="Group 3171" transform="translate(-1075 -184.277)">
    <g id="sign-in" transform="translate(1075 184.277)">
      <g id="Group_3108" data-name="Group 3108" transform="translate(0)">
        <path id="Path_310" data-name="Path 310" d="M273.478,39.3a9.029,9.029,0,0,0-6.624-2.751H256.438a.981.981,0,0,0-.667.212,1.073,1.073,0,0,0-.325.635,5.365,5.365,0,0,0-.1.765,7.922,7.922,0,0,0,.016.863q.032.521.032.651a.842.842,0,0,1,.065.44c-.022.119.054.217.228.293s.26.136.26.179.125.075.375.1l.375.032h10.157a5.225,5.225,0,0,1,5.208,5.209V68.842a5.225,5.225,0,0,1-5.208,5.208H256.439a.983.983,0,0,0-.667.212,1.078,1.078,0,0,0-.326.634,5.419,5.419,0,0,0-.1.765,8.1,8.1,0,0,0,.016.862q.034.521.033.651a1.055,1.055,0,0,0,1.041,1.042h10.416a9.393,9.393,0,0,0,9.374-9.375V45.925A9.033,9.033,0,0,0,273.478,39.3Z" transform="translate(-226.23 -36.551)" fill="#00bbd5"/>
        <path id="Path_311" data-name="Path 311" d="M38.542,65.469A2,2,0,0,0,37.923,64L20.215,46.3a2.083,2.083,0,0,0-3.548,1.465v9.375H2.083a2,2,0,0,0-1.465.618A2,2,0,0,0,0,59.219v12.5a2,2,0,0,0,.618,1.465,2.007,2.007,0,0,0,1.465.619H16.667v9.375a2.071,2.071,0,0,0,3.548,1.465L37.923,66.934A2.006,2.006,0,0,0,38.542,65.469Z" transform="translate(0 -44.637)" fill="#00bbd5"/>
      </g>
    </g>
  </g>
</svg>
