<svg xmlns="http://www.w3.org/2000/svg" width="102" height="102" viewBox="0 0 102 102"><defs><style>.a,.b{fill:#48bcff;}.a{opacity:0.064;}</style></defs><g transform="translate(-747 -3073)"><circle class="a" cx="51" cy="51" r="51" transform="translate(747 3073)"/><g transform="translate(775 3101)"><path class="b" d="M38.978,6.688A22.835,22.835,0,0,0,9.912,4.007a.892.892,0,0,0,1.011,1.47,21.047,21.047,0,1,1-5.447,5.447.892.892,0,0,0-1.47-1.011A22.833,22.833,0,0,0,38.978,38.978a22.833,22.833,0,0,0,0-32.291Zm0,0"/><path class="b" d="M72.94,73.835a.892.892,0,1,0-.63-1.523h0a.892.892,0,0,0,.631,1.522Zm0,0" transform="translate(-65.622 -65.624)"/><path class="b" d="M157.75,318.537a.892.892,0,0,0-1.723.462,9.2,9.2,0,0,0,17.778,0,.892.892,0,0,0-1.723-.462,7.418,7.418,0,0,1-14.331,0Zm0,0" transform="translate(-142.083 -289.524)"/><path class="b" d="M292.625,216.047a2.352,2.352,0,0,1,4.544,0,.892.892,0,1,0,1.723-.462,4.135,4.135,0,0,0-7.989,0,.892.892,0,1,0,1.723.462Zm0,0" transform="translate(-264.928 -193.565)"/><path class="b" d="M134.893,212.52a4.141,4.141,0,0,0-3.994,3.066.892.892,0,0,0,1.723.462,2.352,2.352,0,0,1,4.544,0,.892.892,0,0,0,1.723-.462A4.142,4.142,0,0,0,134.893,212.52Zm0,0" transform="translate(-119.195 -193.565)"/></g></g></svg>