<svg xmlns="http://www.w3.org/2000/svg" width="102" height="102" viewBox="0 0 102 102"><defs><style>.a,.b{fill:#48bcff;}.a{opacity:0.064;}</style></defs><g transform="translate(-226 -3073)"><circle class="a" cx="51" cy="51" r="51" transform="translate(226 3073)"/><g transform="translate(258.847 3101)"><path class="b" d="M35.162,9.246,18,.1a.853.853,0,0,0-.813,0L.5,9.251A.854.854,0,0,0,.055,10V21.947A24.736,24.736,0,0,0,14.881,44.585L17.2,45.595a.854.854,0,0,0,.68,0l2.61-1.127A24.687,24.687,0,0,0,35.615,21.71V10A.855.855,0,0,0,35.162,9.246ZM33.906,21.71A22.982,22.982,0,0,1,19.818,42.9l-.006,0-2.273.981-1.975-.862a23.025,23.025,0,0,1-13.8-21.072V10.506L17.6,1.825l16.3,8.687Zm0,0" transform="translate(0 0)"/><path class="b" d="M81.346,149.605a.854.854,0,0,0-1.3,1.11L84.56,156a.854.854,0,0,0,1.189.108l10.512-8.552a.854.854,0,0,0-1.079-1.326l-9.865,8.025Zm0,0" transform="translate(-70.048 -128.213)"/></g></g></svg>