<svg xmlns="http://www.w3.org/2000/svg" width="29.25" height="29.25" viewBox="0 0 29.25 29.25">
  <path id="Icon_ionic-ios-analytics" data-name="Icon ionic-ios-analytics" d="M18,3.375A14.625,14.625,0,1,0,32.625,18,14.623,14.623,0,0,0,18,3.375ZM5.344,18a12.658,12.658,0,0,1,25.305-.534,4.281,4.281,0,0,0-3.08-1.687c-1.934,0-2.932,1.807-3.586,3-.1.176-.19.345-.274.492A3.48,3.48,0,0,1,20.721,21.3a2.846,2.846,0,0,1-2.264-2.025c-.647-1.554-2.046-3.22-3.72-3.459a3.348,3.348,0,0,0-3.143,1.5c-.225.281-.485.661-.78,1.1-.731,1.09-1.842,2.728-2.679,2.869a3.213,3.213,0,0,1-2.559-.865A12.61,12.61,0,0,1,5.344,18Z" transform="translate(-3.375 -3.375)" fill="#fff"/>
</svg>
