<svg xmlns="http://www.w3.org/2000/svg" width="21.716" height="19.742" viewBox="0 0 21.716 19.742">
  <path id="Icon_material-thumb-up" data-name="Icon material-thumb-up" d="M1.5,21.242H5.448V9.4H1.5ZM23.216,10.384A1.98,1.98,0,0,0,21.242,8.41H15.013L15.951,3.9l.03-.316a1.486,1.486,0,0,0-.434-1.046L14.5,1.5,8,8A1.93,1.93,0,0,0,7.423,9.4v9.871A1.98,1.98,0,0,0,9.4,21.242H18.28a1.961,1.961,0,0,0,1.816-1.2l2.981-6.959a1.95,1.95,0,0,0,.138-.721V10.473l-.01-.01Z" transform="translate(-1.5 -1.5)" fill="#197fe5"/>
</svg>
