<svg xmlns="http://www.w3.org/2000/svg" xmlns:xlink="http://www.w3.org/1999/xlink" width="184.772" height="72.806" viewBox="0 0 184.772 72.806">
  <defs>
    <linearGradient id="linear-gradient" x1="1" y1="0.809" x2="0.5" y2="1" gradientUnits="objectBoundingBox">
      <stop offset="0" stop-color="#334a90"/>
      <stop offset="1" stop-color="#070a13"/>
    </linearGradient>
    <linearGradient id="linear-gradient-2" x1="0.5" x2="0.5" y2="1" gradientUnits="objectBoundingBox">
      <stop offset="0" stop-color="#07a7be"/>
      <stop offset="1" stop-color="#35eee3"/>
    </linearGradient>
    <linearGradient id="linear-gradient-3" x1="0.5" x2="0.5" y2="1" gradientUnits="objectBoundingBox">
      <stop offset="0" stop-color="#3f9aff"/>
      <stop offset="1" stop-color="#42a2ff"/>
    </linearGradient>
    <linearGradient id="linear-gradient-4" x1="0.693" y1="0.294" x2="0.222" y2="1.095" gradientUnits="objectBoundingBox">
      <stop offset="0" stop-color="#74e0ff"/>
      <stop offset="1" stop-color="#41a0ff"/>
    </linearGradient>
    <linearGradient id="linear-gradient-8" x1="0.5" x2="0.5" y2="1" gradientUnits="objectBoundingBox">
      <stop offset="0" stop-color="#00bbd5"/>
      <stop offset="1" stop-color="#35eee3"/>
    </linearGradient>
    <linearGradient id="linear-gradient-9" x1="0.5" x2="0.5" y2="1" gradientUnits="objectBoundingBox">
      <stop offset="0" stop-color="#56d9ff"/>
      <stop offset="1" stop-color="#3f99ff"/>
    </linearGradient>
    <linearGradient id="linear-gradient-11" x1="0.5" x2="0.5" y2="1" gradientUnits="objectBoundingBox">
      <stop offset="0" stop-color="#00bbd5"/>
      <stop offset="1" stop-color="#5ef8ef"/>
    </linearGradient>
    <linearGradient id="linear-gradient-13" y1="0.5" xlink:href="#linear-gradient"/>
  </defs>
  <g id="Group_3079" data-name="Group 3079" transform="translate(-650 -590.847)">
    <g id="Group_33" data-name="Group 33" transform="translate(650 590.847)">
      <path id="Path_109" data-name="Path 109" d="M16346.086,5320.76l.03,25.776,20.816,10.413v5.561l-20.816-10.466V5362.2l31.031,15.548-.028-25.784-20.892-10.494.052-5.492,20.8,10.4.015-10.084Z" transform="translate(-16346.086 -5304.944)" fill="url(#linear-gradient)"/>
      <path id="Path_106" data-name="Path 106" d="M16347.318,5221.533l10.231-5.111,3.849,1.933,27.006,13.565-9.994,5.134Z" transform="translate(-16347.255 -5205.949)" fill="url(#linear-gradient-2)"/>
      <g id="Group_34" data-name="Group 34" transform="translate(31.272 15.749)">
        <path id="Path_110" data-name="Path 110" d="M16966.971,5329.9l-10.135,5.146V5376.5l31.006-15.523-.006-41.509-10.115,5.092v29.633l-1.711.784v-13.224l-7.5,3.772v13.223l-1.539.773Z" transform="translate(-16956.836 -5319.467)" fill="url(#linear-gradient-3)"/>
        <path id="Subtraction_12" data-name="Subtraction 12" d="M31.006,32.419h0c-.761-.4-1.553-.783-2.353-1.133s-1.64-.682-2.479-.979-1.719-.574-2.593-.816-1.79-.46-2.7-.643V5.092L31,0l0,32.419ZM0,30.1H0V15.581l10.134-5.146V28.119c-.885.055-1.776.14-2.649.253s-1.731.252-2.578.419-1.68.359-2.5.578S.786,29.83,0,30.1Zm19.174-1.557h0a41.585,41.585,0,0,0-5-.477c-.487-.017-.98-.026-1.464-.026-.345,0-.694,0-1.038.013V26.058l7.5-3.772v6.255Z" transform="translate(0)" fill="url(#linear-gradient-4)"/>
      </g>
      <g id="Group_35" data-name="Group 35" transform="translate(31.272 15.749)">
        <path id="Path_110-2" data-name="Path 110" d="M16966.971,5329.9l-10.135,5.146V5376.5l31.006-15.523-.006-41.509-10.115,5.092v29.633l-1.711.784v-13.224l-7.5,3.772v13.223l-1.539.773Z" transform="translate(-16956.836 -5319.467)" fill="url(#linear-gradient-3)"/>
        <path id="Subtraction_12-2" data-name="Subtraction 12" d="M31.006,32.419h0c-.761-.4-1.553-.783-2.353-1.133s-1.64-.682-2.479-.979-1.719-.574-2.593-.816-1.79-.46-2.7-.643V5.092L31,0l0,32.419ZM0,30.1H0V15.581l10.134-5.146V28.119c-.885.055-1.776.14-2.649.253s-1.731.252-2.578.419-1.68.359-2.5.578S.786,29.83,0,30.1Zm19.174-1.557h0a41.585,41.585,0,0,0-5-.477c-.487-.017-.98-.026-1.464-.026-.345,0-.694,0-1.038.013V26.058l7.5-3.772v6.255Z" transform="translate(0)" fill="url(#linear-gradient-4)"/>
      </g>
      <path id="Path_107" data-name="Path 107" d="M16753.422,5114.679l31.045,15.651v29.2l-1.133-.621V5147.13l-9-4.635v-7.175l-20.91-10.441Z" transform="translate(-16732.564 -5109.416)" fill="url(#linear-gradient)"/>
      <path id="Path_111" data-name="Path 111" d="M16550.693,5678.065l4.971-2.483,15.563,7.772v4.938Z" transform="translate(-16540.217 -5641.599)" fill="url(#linear-gradient-8)"/>
      <path id="Path_112" data-name="Path 112" d="M16550.027,5626.471v4.74l4.7-2.355Z" transform="translate(-16539.586 -5595.002)" fill="url(#linear-gradient-9)"/>
      <path id="Path_113" data-name="Path 113" d="M17161.035,5663.484v7.582l1.123.622,7.574-3.773Z" transform="translate(-17119.307 -5630.121)" fill="url(#linear-gradient-8)"/>
      <path id="Path_108" data-name="Path 108" d="M16591.414,5011.89l30.994,15.582-10.162,5.087-22.348-.389-19.4-9.794,22.68.631-11.961-5.992Z" transform="translate(-16560.197 -5011.89)" fill="url(#linear-gradient-11)"/>
      <path id="Path_114" data-name="Path 114" d="M16348.686,5881.542l4.981-2.489,15.431,7.781v4.931Z" transform="translate(-16348.553 -5834.651)" fill="url(#linear-gradient-8)"/>
      <path id="Path_115" data-name="Path 115" d="M17162.508,5818.608v12.864l-.871-.478v-12.9Z" transform="translate(-17119.879 -5776.813)" fill="url(#linear-gradient-13)"/>
      <path id="Path_116" data-name="Path 116" d="M17161.035,6076.319l.779.4-.779.425Z" transform="translate(-17119.307 -6021.817)" fill="url(#linear-gradient-8)"/>
      <path id="Path_117" data-name="Path 117" d="M17159.324,6073.992l.982.5-.982.478Z" transform="translate(-17108.57 -6024.167)" fill="url(#linear-gradient-8)"/>
    </g>
    <g id="Group_68" data-name="Group 68" transform="translate(722.772 593.728)">
      <text id="SW_N" data-name="SW N" transform="translate(112 43)" fill="#111e68" font-size="44" font-family="Helvetica"><tspan x="-114.877" y="0">SW N</tspan></text>
      <text id="SoftWare_in_Need" data-name="SoftWare in Need" transform="translate(103.361 55.567)" fill="#42a2ff" font-size="11" font-family="Helvetica"><tspan x="-86.416" y="0">SoftWare in Need</tspan></text>
      <path id="Path_253" data-name="Path 253" d="M10.411-94.5a1.824,1.824,0,0,0,1.338-.556,1.935,1.935,0,0,0,.586-1.338v-18.487h1.954v18.487a1.8,1.8,0,0,0,.571,1.338,1.874,1.874,0,0,0,1.353.556H16.6v.3H10.02v-.3Z" transform="translate(56.421 138.462)" fill="#111e68"/>
      <rect id="Rectangle_46" data-name="Rectangle 46" width="2.254" height="1.61" transform="translate(68.586 20.286)" fill="#111e68"/>
    </g>
  </g>
</svg>
