<svg xmlns="http://www.w3.org/2000/svg" xmlns:xlink="http://www.w3.org/1999/xlink" width="128.807" height="30.938" viewBox="0 0 128.807 30.938"><defs><style>.a{fill:#0099f8;}.b{fill:url(#a);}.c{fill:url(#b);}.d{fill:#001e57;}</style><linearGradient id="a" x1="0.992" y1="-0.28" x2="0.199" y2="0.99" gradientUnits="objectBoundingBox"><stop offset="0" stop-color="#001e57"/><stop offset="0.654" stop-color="#0075ff"/></linearGradient><linearGradient id="b" x1="-0.916" y1="0.5" x2="0.889" y2="0.5" gradientUnits="objectBoundingBox"><stop offset="0" stop-color="#001e57"/><stop offset="1" stop-color="#0075ff"/></linearGradient></defs><g transform="translate(-352.809 -534.436)"><g transform="translate(352.809 534.436)"><path class="a" d="M470.828,534.579" transform="translate(-448.694 -534.552)"/><path class="b" d="M366.323,556.938l10.26-22.449a13.254,13.254,0,0,0-5.1.7c-5.487,1.916-7.845,6.942-8.36,8.116L352.809,565.3a12.482,12.482,0,0,0,5.405-.509C363.671,563,365.921,557.9,366.323,556.938Z" transform="translate(-352.809 -534.463)"/><path class="c" d="M422.733,534.436H409.917a13.794,13.794,0,0,0-6.509,1.805,16.328,16.328,0,0,0-5.83,6.408c-.167.346-.419.915-1.333,2.865-.591,1.26-1.078,2.288-1.4,2.96a14.951,14.951,0,0,1,12.194-5.921h4.791a11.625,11.625,0,0,0,7.405-2.72A11.456,11.456,0,0,0,422.733,534.436Z" transform="translate(-386.963 -534.436)"/><path class="c" d="M391.106,601.812H378.29a13.8,13.8,0,0,0-6.509,1.805,16.33,16.33,0,0,0-5.83,6.408c-.055.114-.257.569-.568,1.225-.152.32-.267.556-.519,1.09l-.278.592-.672,1.432c-.2.433-.3.633-.516,1.1l-.186.395a14.659,14.659,0,0,1,5.359-4.414,15.732,15.732,0,0,1,6.843-1.517H380.2a11.625,11.625,0,0,0,7.405-2.72A11.457,11.457,0,0,0,391.106,601.812Z" transform="translate(-361.26 -589.176)"/></g><g transform="translate(396.424 539.347)"><path class="d" d="M552,584.094h0a2,2,0,0,1-2-2v-9.449a.273.273,0,0,0-.273-.273h-1.407a.273.273,0,0,1-.273-.273v-2.04a1.679,1.679,0,0,1,1.679-1.68h0a.273.273,0,0,0,.273-.273v-.476a6.823,6.823,0,0,1,.551-2.73,6.942,6.942,0,0,1,1.512-2.224,7.243,7.243,0,0,1,2.239-1.5,6.82,6.82,0,0,1,2.73-.551h.856a2.151,2.151,0,0,1,2.151,2.151h0a1.844,1.844,0,0,1-1.84,1.84h-1.17a3.1,3.1,0,0,0-1.2.231,2.905,2.905,0,0,0-.954.631,3.009,3.009,0,0,0-.874,2.151v.476a.273.273,0,0,0,.273.273h3.311a1.335,1.335,0,0,1,1.335,1.335v1.475a1.184,1.184,0,0,1-1.184,1.184h-3.461a.273.273,0,0,0-.273.273v9.449A2,2,0,0,1,552,584.094Z" transform="translate(-548.041 -560.623)"/><path class="d" d="M626.357,616.049a.273.273,0,0,0-.382-.06l-.019.015q-.384.33-.81.63a7.782,7.782,0,0,1-1.152.675,7.1,7.1,0,0,1-1.32.476,5.008,5.008,0,0,1-1.229.148,7.244,7.244,0,0,1-2.718-.514,6.636,6.636,0,0,1-3.751-3.764,8.043,8.043,0,0,1-.551-3.046v-6.7a1.987,1.987,0,0,1,1.987-1.987h0a2.007,2.007,0,0,1,2.007,2.007v6.684a3.89,3.89,0,0,0,.242,1.417,3.108,3.108,0,0,0,.653,1.049,2.726,2.726,0,0,0,.962.646,3.149,3.149,0,0,0,1.182.221,2.5,2.5,0,0,0,1.167-.287,3.27,3.27,0,0,0,.962-.756,3.628,3.628,0,0,0,.646-1.064,3.31,3.31,0,0,0,.235-1.229v-6.657a2.033,2.033,0,0,1,2.034-2.034h0a1.974,1.974,0,0,1,1.974,1.974h0V617a.641.641,0,0,1-.641.641h0a.64.64,0,0,1-.52-.266Z" transform="translate(-601.975 -594.17)"/><path class="d" d="M707.612,616.321h0a2,2,0,0,1-2-2h0V601.263a.665.665,0,0,1,.665-.665h0a.665.665,0,0,1,.5.23l.943,1.09a.273.273,0,0,0,.384.027,7.05,7.05,0,0,1,4.55-1.655,6.788,6.788,0,0,1,2.716.551,7.037,7.037,0,0,1,2.228,1.512A7.163,7.163,0,0,1,719.1,604.6a6.879,6.879,0,0,1,.55,2.738v6.98a2,2,0,0,1-2,2h0a2,2,0,0,1-2-2h0v-6.98a2.949,2.949,0,0,0-.235-1.167,3.026,3.026,0,0,0-1.6-1.608,2.9,2.9,0,0,0-1.16-.235,3.007,3.007,0,0,0-2.8,1.844,2.939,2.939,0,0,0-.235,1.167v6.98A2,2,0,0,1,707.612,616.321Z" transform="translate(-676.057 -592.851)"/><path class="d" d="M806.5,590.576h0a.64.64,0,0,1-.52-.266l-1.189-1.649a.273.273,0,0,0-.381-.06l-.018.015q-.472.4-.987.768a8.936,8.936,0,0,1-1.344.778,8.173,8.173,0,0,1-1.98.639,3.985,3.985,0,0,1-.542.062,7.933,7.933,0,0,1-6.1-2.346,8.139,8.139,0,0,1-1.725-2.627,8.977,8.977,0,0,1,0-6.614,8.213,8.213,0,0,1,1.725-2.643A7.961,7.961,0,0,1,796,574.886a7.78,7.78,0,0,1,3.12-.631,7.1,7.1,0,0,1,1.094.088,5.678,5.678,0,0,1,1.1.287,4.557,4.557,0,0,1,1.006.521,3.1,3.1,0,0,1,.343.273.271.271,0,0,0,.45-.206v-4.6a2.019,2.019,0,0,1,2.019-2.019h0a2.019,2.019,0,0,1,2.019,2.019h0v19.317A.64.64,0,0,1,806.5,590.576Zm-3.4-8a4.169,4.169,0,0,0-.316-1.593,4.587,4.587,0,0,0-.859-1.365,4.272,4.272,0,0,0-1.27-.954,3.444,3.444,0,0,0-1.549-.36,4.093,4.093,0,0,0-1.549.294,3.644,3.644,0,0,0-1.262.845,3.94,3.94,0,0,0-.845,1.343,4.911,4.911,0,0,0-.307,1.791,4.475,4.475,0,0,0,1.152,3.01,3.94,3.94,0,0,0,1.262.922,3.632,3.632,0,0,0,1.549.337,3.444,3.444,0,0,0,1.549-.36,4.275,4.275,0,0,0,1.27-.954,4.585,4.585,0,0,0,.859-1.365,4.169,4.169,0,0,0,.316-1.59Z" transform="translate(-745.503 -567.106)"/><path class="d" d="M895.014,590.563h0A2.019,2.019,0,0,1,893,588.544V570.606a2.019,2.019,0,0,1,2.018-2.019h0a2.019,2.019,0,0,1,2.019,2.019h0v17.939A2.019,2.019,0,0,1,895.014,590.563Z" transform="translate(-828.301 -567.093)"/><path class="d" d="M933.705,610.885a.27.27,0,0,0,.183.442h0q.234.022.47.022a3.949,3.949,0,0,0,1.13-.161,4.072,4.072,0,0,0,1.02-.461,3.8,3.8,0,0,0,.851-.734l.008-.008a1,1,0,0,1,1.411-.136c.023.019.044.038.065.059l1.437,1.444a.99.99,0,0,1,.048,1.354,7.859,7.859,0,0,1-.708.7,8.113,8.113,0,0,1-1.571,1.076,7.867,7.867,0,0,1-1.776.668,8.062,8.062,0,0,1-1.916.231,7.937,7.937,0,0,1-5.674-2.334,8.048,8.048,0,0,1-1.725-2.62,8.618,8.618,0,0,1-.632-3.34,8.9,8.9,0,0,1,.632-3.405,7.7,7.7,0,0,1,4.279-4.316,8.105,8.105,0,0,1,3.12-.6,7.91,7.91,0,0,1,1.92.235,8.046,8.046,0,0,1,3.362,1.755l.015.013a1.961,1.961,0,0,1,.194,2.724Zm1.526-7.6a.275.275,0,0,0-.177-.436c-.044-.008-.088-.014-.131-.018a5.28,5.28,0,0,0-.565-.029,4.017,4.017,0,0,0-1.549.3,3.686,3.686,0,0,0-1.262.859,4.052,4.052,0,0,0-.845,1.344,4.811,4.811,0,0,0-.307,1.767q0,.221.022.5a5.28,5.28,0,0,0,.077.565q.052.287.125.551v.005a.268.268,0,0,0,.472.089Z" transform="translate(-855.382 -591.608)"/></g></g></svg>