<svg xmlns="http://www.w3.org/2000/svg" width="23.859" height="25" viewBox="0 0 23.859 25">
  <g id="setting_3_" data-name="setting (3)" transform="translate(-41.548 51)">
    <path id="Subtraction_19" data-name="Subtraction 19" d="M13.662,25H10.2a1.786,1.786,0,0,1-1.751-1.405l-.44-1.951A9.574,9.574,0,0,1,5.97,20.462l-1.9.6a1.841,1.841,0,0,1-.541.081,1.793,1.793,0,0,1-1.568-.9L.237,17.253a1.825,1.825,0,0,1,.336-2.224l1.471-1.352A10.76,10.76,0,0,1,1.976,12.5a10.52,10.52,0,0,1,.066-1.178L.579,9.977a1.821,1.821,0,0,1-.347-2.22l1.737-3a1.785,1.785,0,0,1,1.561-.9,1.817,1.817,0,0,1,.541.082l1.9.6A9.587,9.587,0,0,1,8.006,3.356L8.446,1.4A1.786,1.786,0,0,1,10.2,0h3.465a1.784,1.784,0,0,1,1.75,1.405l.44,1.951a9.567,9.567,0,0,1,2.035,1.181l1.9-.6a1.812,1.812,0,0,1,2.109.82l1.727,2.988a1.824,1.824,0,0,1-.336,2.224l-1.471,1.352a10.437,10.437,0,0,1,0,2.355l1.465,1.345,0,0a1.816,1.816,0,0,1,.342,2.215l-1.737,3a1.787,1.787,0,0,1-1.562.9,1.816,1.816,0,0,1-.54-.082l-1.9-.6a9.58,9.58,0,0,1-2.035,1.181l-.44,1.952A1.782,1.782,0,0,1,13.662,25ZM12.714,8.333a.79.79,0,0,0-.765.606L10.386,15.71a.782.782,0,0,0,.586.937.761.761,0,0,0,.177.02.777.777,0,0,0,.76-.605l1.562-6.772a.779.779,0,0,0-.757-.956Zm2.6,1.042a.781.781,0,0,0-.524,1.362L16.751,12.5l-1.959,1.763a.783.783,0,0,0-.058,1.1.774.774,0,0,0,.581.259.785.785,0,0,0,.523-.2l2.6-2.344a.784.784,0,0,0,0-1.162l-2.6-2.344A.782.782,0,0,0,15.316,9.375Zm-6.773,0a.779.779,0,0,0-.522.2l-2.6,2.344a.784.784,0,0,0,0,1.162l2.6,2.344a.785.785,0,0,0,.523.2.774.774,0,0,0,.581-.259.783.783,0,0,0-.058-1.1L7.108,12.5l1.959-1.762a.782.782,0,0,0-.524-1.363Z" transform="translate(41.548 -51)" fill="#334a90"/>
  </g>
</svg>
