<svg xmlns="http://www.w3.org/2000/svg" width="19.022" height="15.851" viewBox="0 0 19.022 15.851">
  <g id="sign-in" transform="translate(0 -36.551)">
    <g id="Group_3108" data-name="Group 3108" transform="translate(0 36.551)">
      <path id="Path_310" data-name="Path 310" d="M262.242,37.6a3.435,3.435,0,0,0-2.52-1.046h-3.963a.373.373,0,0,0-.254.08.408.408,0,0,0-.124.242,2.046,2.046,0,0,0-.037.291,3.019,3.019,0,0,0,.006.328q.012.2.012.248a.32.32,0,0,1,.025.167c-.008.045.021.083.087.111s.1.052.1.068.048.029.142.037l.143.012h3.864a1.988,1.988,0,0,1,1.981,1.982v8.718a1.988,1.988,0,0,1-1.981,1.981H255.76a.374.374,0,0,0-.254.08.41.41,0,0,0-.124.241,2.063,2.063,0,0,0-.037.291,3.074,3.074,0,0,0,.006.328q.013.2.013.248a.4.4,0,0,0,.4.4h3.963a3.573,3.573,0,0,0,3.566-3.567V40.117A3.437,3.437,0,0,0,262.242,37.6Z" transform="translate(-244.267 -36.551)" fill="#fff"/>
      <path id="Path_311" data-name="Path 311" d="M14.663,53.207a.762.762,0,0,0-.235-.557L7.691,45.912a.793.793,0,0,0-1.35.557v3.567H.793a.762.762,0,0,0-.557.235A.762.762,0,0,0,0,50.829v4.755a.761.761,0,0,0,.235.557.763.763,0,0,0,.557.235H6.341v3.567a.788.788,0,0,0,1.35.557l6.737-6.737A.763.763,0,0,0,14.663,53.207Z" transform="translate(0 -45.281)" fill="#fff"/>
    </g>
  </g>
</svg>
