<svg id="writing" xmlns="http://www.w3.org/2000/svg" width="17.911" height="20.146" viewBox="0 0 17.911 20.146">
  <g id="Group_3136" data-name="Group 3136">
    <g id="Group_3135" data-name="Group 3135">
      <path id="Path_336" data-name="Path 336" d="M115.652,200.747A.747.747,0,0,0,114.9,200h-7.7a.747.747,0,1,0,0,1.495h7.7A.747.747,0,0,0,115.652,200.747Z" transform="translate(-103.47 -192.526)" fill="#fff"/>
      <path id="Path_337" data-name="Path 337" d="M107.206,280a.747.747,0,1,0,0,1.495h4.675a.747.747,0,1,0,0-1.495Z" transform="translate(-103.47 -269.536)" fill="#fff"/>
      <path id="Path_338" data-name="Path 338" d="M32.059,17.639h-2.5a1.5,1.5,0,0,1-1.495-1.495V2.99A1.5,1.5,0,0,1,29.56,1.495h9.189A1.5,1.5,0,0,1,40.243,2.99v4.6a.747.747,0,1,0,1.495,0V2.99A2.993,2.993,0,0,0,38.749,0H29.56a2.993,2.993,0,0,0-2.99,2.99V16.144a2.993,2.993,0,0,0,2.99,2.99h2.5a.747.747,0,1,0,0-1.495Z" transform="translate(-26.57)" fill="#fff"/>
      <path id="Path_339" data-name="Path 339" d="M253.351,272.8a2.648,2.648,0,0,0-3.74,0l-4.841,4.83a.882.882,0,0,0-.221.368l-1.054,3.471a.882.882,0,0,0,1.079,1.106l3.559-.986a.882.882,0,0,0,.387-.226l4.831-4.821A2.648,2.648,0,0,0,253.351,272.8Zm-5.912,7.15-1.79.5.524-1.725,3.266-3.259,1.247,1.247Zm4.666-4.657-.171.17-1.247-1.247.17-.17a.882.882,0,0,1,1.247,1.246Z" transform="translate(-236.214 -262.457)" fill="#fff"/>
      <path id="Path_340" data-name="Path 340" d="M114.9,120h-7.7a.747.747,0,1,0,0,1.495h7.7a.747.747,0,0,0,0-1.495Z" transform="translate(-103.47 -115.516)" fill="#fff"/>
    </g>
  </g>
</svg>
