<svg xmlns="http://www.w3.org/2000/svg" width="289" height="282.099" viewBox="0 0 289 282.099">
  <g id="Group_3178" data-name="Group 3178" transform="translate(-0.001 -0.004)">
    <path id="Path_418" data-name="Path 418" d="M481.328,212.973H403.455a6.7,6.7,0,0,0-6.694,6.694V392.74l-.892.272-19.1,5.85a3.573,3.573,0,0,1-4.458-2.37L315.484,210.88a3.571,3.571,0,0,1,2.37-4.458l29.438-9.014,85.343-26.123,29.438-9.014a3.565,3.565,0,0,1,4.458,2.365l14.525,47.444Z" transform="translate(-297.858 -149.527)" fill="#e0fbff"/>
    <path id="Path_419" data-name="Path 419" d="M476.645,196.466l-17.506-57.181a7.583,7.583,0,0,0-9.474-5.034L408.277,146.92l-85.339,26.127-41.389,12.673a7.593,7.593,0,0,0-5.034,9.474l59.832,195.421a7.6,7.6,0,0,0,7.256,5.368,7.491,7.491,0,0,0,2.218-.335l28.372-8.684.892-.277v-.933l-.892.272L345.558,394.8a6.7,6.7,0,0,1-8.358-4.44L277.373,194.931a6.684,6.684,0,0,1,4.44-8.358L323.2,173.9l85.339-26.123L449.929,135.1a6.687,6.687,0,0,1,8.358,4.44l17.426,56.922.277.892h.928Z" transform="translate(-276.182 -133.913)" fill="#3f3d56"/>
    <path id="Path_420" data-name="Path 420" d="M386.742,198.64A4.023,4.023,0,0,1,382.9,195.8l-5.748-18.774a4.016,4.016,0,0,1,2.665-5.016l78.511-24.036a4.02,4.02,0,0,1,5.016,2.664l5.748,18.774a4.021,4.021,0,0,1-2.664,5.016l-78.511,24.036a4.005,4.005,0,0,1-1.173.176Z" transform="translate(-331.996 -141.599)" fill="#00bbd5"/>
    <circle id="Ellipse_95" data-name="Ellipse 95" cx="8.925" cy="8.925" r="8.925" transform="translate(75.93 2.213)" fill="#00bbd5"/>
    <circle id="Ellipse_96" data-name="Ellipse 96" cx="5.651" cy="5.651" r="5.651" transform="translate(79.203 5.486)" fill="#fff"/>
    <path id="Path_421" data-name="Path 421" d="M686.94,482.4H536.111a3.8,3.8,0,0,1-3.793-3.793V297.88a3.8,3.8,0,0,1,3.793-3.793H686.94a3.8,3.8,0,0,1,3.793,3.793V478.607A3.8,3.8,0,0,1,686.94,482.4Z" transform="translate(-418.02 -222.609)" fill="#e3f9ff"/>
    <path id="Path_422" data-name="Path 422" d="M597.337,274.087H503.4a7.6,7.6,0,0,0-7.586,7.586V463.649l.892-.272v-181.7a6.7,6.7,0,0,1,6.694-6.694h94.21Zm81.885,0H503.4a7.6,7.6,0,0,0-7.586,7.586V486.05a7.6,7.6,0,0,0,7.586,7.586H679.222a7.6,7.6,0,0,0,7.586-7.586V281.673A7.6,7.6,0,0,0,679.222,274.087Zm6.694,211.964a6.7,6.7,0,0,1-6.694,6.694H503.4a6.7,6.7,0,0,1-6.694-6.694V281.673a6.7,6.7,0,0,1,6.694-6.694H679.222a6.7,6.7,0,0,1,6.694,6.694Z" transform="translate(-397.807 -211.534)" fill="#3f3d56"/>
    <path id="Path_423" data-name="Path 423" d="M694.942,283.754H612.835a4.021,4.021,0,0,1-4.016-4.016V260.1a4.021,4.021,0,0,1,4.016-4.016h82.108a4.021,4.021,0,0,1,4.016,4.016v19.635A4.021,4.021,0,0,1,694.942,283.754Z" transform="translate(-460.382 -201.566)" fill="#74e0ff"/>
    <circle id="Ellipse_97" data-name="Ellipse 97" cx="8.925" cy="8.925" r="8.925" transform="translate(184.581 38.01)" fill="#74e0ff"/>
    <circle id="Ellipse_98" data-name="Ellipse 98" cx="5.436" cy="5.436" r="5.436" transform="translate(188.07 41.499)" fill="#fff"/>
  </g>
</svg>
