<svg xmlns="http://www.w3.org/2000/svg" width="19.826" height="23.792" viewBox="0 0 19.826 23.792">
  <g id="notification_1_" data-name="notification (1)" transform="translate(0 0)">
    <g id="Group_3146" data-name="Group 3146" transform="translate(0 0)">
      <g id="Group_3145" data-name="Group 3145">
        <path id="Path_373" data-name="Path 373" d="M62.431,20.067l-1.7-2.837a8.428,8.428,0,0,1-1.2-4.336V10.409A6.948,6.948,0,0,0,54.57,3.762V1.983a1.983,1.983,0,1,0-3.965,0V3.762a6.948,6.948,0,0,0-4.957,6.647v2.485a8.433,8.433,0,0,1-1.2,4.335l-1.7,2.837a.5.5,0,0,0,.424.751H62.005a.5.5,0,0,0,.425-.75Z" transform="translate(-42.675 0)" fill="#334a90"/>
      </g>
    </g>
    <g id="Group_3148" data-name="Group 3148" transform="translate(6.791 21.809)">
      <g id="Group_3147" data-name="Group 3147" transform="translate(0 0)">
        <path id="Path_374" data-name="Path 374" d="M188.815,469.333a3.449,3.449,0,0,0,6.243,0Z" transform="translate(-188.815 -469.333)" fill="#334a90"/>
      </g>
    </g>
  </g>
</svg>
