<svg id="office-building" xmlns="http://www.w3.org/2000/svg" width="24.793" height="27.596" viewBox="0 0 24.793 27.596">
  <path id="Path_342" data-name="Path 342" d="M50.254,6.468H40.013V.539A.539.539,0,0,0,39.474,0H26.539A.539.539,0,0,0,26,.539V27.057a.539.539,0,0,0,.539.539H50.254a.539.539,0,0,0,.539-.539V7.007A.539.539,0,0,0,50.254,6.468ZM40.013,7.546h9.7V21.128h-9.7ZM31.39,26.518V22.206h3.234v4.312Zm3.773-5.39H30.851a.539.539,0,0,0-.539.539v4.851H27.078V1.078H38.935v25.44H35.7V21.667A.539.539,0,0,0,35.163,21.128Zm4.851,5.39V22.206h9.7v4.312Z" transform="translate(-26)" fill="#334a90"/>
  <path id="Path_343" data-name="Path 343" d="M136.538,42.157h1.078a.539.539,0,0,0,.539-.539V40.54a.539.539,0,0,0-.539-.539h-1.078a.539.539,0,0,0-.539.539v1.078A.539.539,0,0,0,136.538,42.157Z" transform="translate(-130.07 -37.845)" fill="#334a90"/>
  <path id="Path_344" data-name="Path 344" d="M136.538,112.157h1.078a.539.539,0,0,0,.539-.539V110.54a.539.539,0,0,0-.539-.539h-1.078a.539.539,0,0,0-.539.539v1.078A.539.539,0,0,0,136.538,112.157Z" transform="translate(-130.07 -104.072)" fill="#334a90"/>
  <path id="Path_345" data-name="Path 345" d="M136.538,182.157h1.078a.539.539,0,0,0,.539-.539V180.54a.539.539,0,0,0-.539-.539h-1.078a.539.539,0,0,0-.539.539v1.078A.539.539,0,0,0,136.538,182.157Z" transform="translate(-130.07 -170.299)" fill="#334a90"/>
  <path id="Path_346" data-name="Path 346" d="M136.538,252.156h1.078a.539.539,0,0,0,.539-.539v-1.078a.539.539,0,0,0-.539-.539h-1.078a.539.539,0,0,0-.539.539v1.078A.539.539,0,0,0,136.538,252.156Z" transform="translate(-130.07 -236.526)" fill="#334a90"/>
  <path id="Path_347" data-name="Path 347" d="M136.538,322.156h1.078a.539.539,0,0,0,.539-.539v-1.078a.539.539,0,0,0-.539-.539h-1.078a.539.539,0,0,0-.539.539v1.078A.539.539,0,0,0,136.538,322.156Z" transform="translate(-130.07 -302.753)" fill="#334a90"/>
  <path id="Path_348" data-name="Path 348" d="M66.54,42.157h1.078a.539.539,0,0,0,.539-.539V40.54A.539.539,0,0,0,67.618,40H66.54A.539.539,0,0,0,66,40.54v1.078A.539.539,0,0,0,66.54,42.157Z" transform="translate(-63.845 -37.845)" fill="#334a90"/>
  <path id="Path_349" data-name="Path 349" d="M66.54,112.157h1.078a.539.539,0,0,0,.539-.539V110.54a.539.539,0,0,0-.539-.539H66.54a.539.539,0,0,0-.539.539v1.078A.539.539,0,0,0,66.54,112.157Z" transform="translate(-63.845 -104.072)" fill="#334a90"/>
  <path id="Path_350" data-name="Path 350" d="M66.54,182.157h1.078a.539.539,0,0,0,.539-.539V180.54a.539.539,0,0,0-.539-.539H66.54a.539.539,0,0,0-.539.539v1.078A.539.539,0,0,0,66.54,182.157Z" transform="translate(-63.845 -170.299)" fill="#334a90"/>
  <path id="Path_351" data-name="Path 351" d="M66.54,252.156h1.078a.539.539,0,0,0,.539-.539v-1.078a.539.539,0,0,0-.539-.539H66.54a.539.539,0,0,0-.539.539v1.078A.539.539,0,0,0,66.54,252.156Z" transform="translate(-63.845 -236.526)" fill="#334a90"/>
  <path id="Path_352" data-name="Path 352" d="M66.54,322.156h1.078a.539.539,0,0,0,.539-.539v-1.078a.539.539,0,0,0-.539-.539H66.54a.539.539,0,0,0-.539.539v1.078A.539.539,0,0,0,66.54,322.156Z" transform="translate(-63.845 -302.753)" fill="#334a90"/>
  <path id="Path_353" data-name="Path 353" d="M207.618,40H206.54a.539.539,0,0,0-.539.539v1.078a.539.539,0,0,0,.539.539h1.078a.539.539,0,0,0,.539-.539V40.54A.539.539,0,0,0,207.618,40Z" transform="translate(-196.299 -37.845)" fill="#334a90"/>
  <path id="Path_354" data-name="Path 354" d="M207.618,110H206.54a.539.539,0,0,0-.539.539v1.078a.539.539,0,0,0,.539.539h1.078a.539.539,0,0,0,.539-.539v-1.078A.539.539,0,0,0,207.618,110Z" transform="translate(-196.299 -104.071)" fill="#334a90"/>
  <path id="Path_355" data-name="Path 355" d="M207.618,180H206.54a.539.539,0,0,0-.539.539v1.078a.539.539,0,0,0,.539.539h1.078a.539.539,0,0,0,.539-.539v-1.078A.539.539,0,0,0,207.618,180Z" transform="translate(-196.299 -170.298)" fill="#334a90"/>
  <path id="Path_356" data-name="Path 356" d="M207.618,250H206.54a.539.539,0,0,0-.539.539v1.078a.539.539,0,0,0,.539.539h1.078a.539.539,0,0,0,.539-.539v-1.078A.539.539,0,0,0,207.618,250Z" transform="translate(-196.299 -236.526)" fill="#334a90"/>
  <path id="Path_357" data-name="Path 357" d="M207.618,320H206.54a.539.539,0,0,0-.539.539v1.078a.539.539,0,0,0,.539.539h1.078a.539.539,0,0,0,.539-.539v-1.078A.539.539,0,0,0,207.618,320Z" transform="translate(-196.299 -302.753)" fill="#334a90"/>
  <path id="Path_358" data-name="Path 358" d="M392.617,180h-1.078a.539.539,0,0,0-.539.539v1.078a.539.539,0,0,0,.539.539h1.078a.539.539,0,0,0,.539-.539v-1.078A.539.539,0,0,0,392.617,180Z" transform="translate(-371.327 -170.298)" fill="#334a90"/>
  <path id="Path_359" data-name="Path 359" d="M392.617,250h-1.078a.539.539,0,0,0-.539.539v1.078a.539.539,0,0,0,.539.539h1.078a.539.539,0,0,0,.539-.539v-1.078A.539.539,0,0,0,392.617,250Z" transform="translate(-371.327 -236.526)" fill="#334a90"/>
  <path id="Path_360" data-name="Path 360" d="M392.617,320h-1.078a.539.539,0,0,0-.539.539v1.078a.539.539,0,0,0,.539.539h1.078a.539.539,0,0,0,.539-.539v-1.078A.539.539,0,0,0,392.617,320Z" transform="translate(-371.327 -302.753)" fill="#334a90"/>
  <path id="Path_361" data-name="Path 361" d="M322.619,180h-1.078a.539.539,0,0,0-.539.539v1.078a.539.539,0,0,0,.539.539h1.078a.539.539,0,0,0,.539-.539v-1.078A.539.539,0,0,0,322.619,180Z" transform="translate(-305.102 -170.298)" fill="#334a90"/>
  <path id="Path_362" data-name="Path 362" d="M322.619,250h-1.078a.539.539,0,0,0-.539.539v1.078a.539.539,0,0,0,.539.539h1.078a.539.539,0,0,0,.539-.539v-1.078A.539.539,0,0,0,322.619,250Z" transform="translate(-305.102 -236.526)" fill="#334a90"/>
  <path id="Path_363" data-name="Path 363" d="M322.619,320h-1.078a.539.539,0,0,0-.539.539v1.078a.539.539,0,0,0,.539.539h1.078a.539.539,0,0,0,.539-.539v-1.078A.539.539,0,0,0,322.619,320Z" transform="translate(-305.102 -302.753)" fill="#334a90"/>
</svg>
