<svg id="lock" xmlns="http://www.w3.org/2000/svg" width="23.289" height="28.595" viewBox="0 0 23.289 28.595">
  <g id="Group_3140" data-name="Group 3140" transform="translate(0 0)">
    <g id="Group_3139" data-name="Group 3139">
      <path id="Path_369" data-name="Path 369" d="M214.392,281.632l-.408,3.379a.567.567,0,0,0,.161.463.673.673,0,0,0,.482.2h2.588a.673.673,0,0,0,.482-.2.567.567,0,0,0,.161-.463l-.408-3.379a2.3,2.3,0,0,0,1.059-1.916,2.6,2.6,0,0,0-5.175,0A2.3,2.3,0,0,0,214.392,281.632Zm1.529-3.108a1.247,1.247,0,0,1,1.294,1.191,1.179,1.179,0,0,1-.735,1.068.588.588,0,0,0-.361.6l.374,3.1H215.35l.374-3.1a.588.588,0,0,0-.361-.6,1.179,1.179,0,0,1-.735-1.068A1.247,1.247,0,0,1,215.921,278.525Z" transform="translate(-204.276 -261.844)" fill="#334a90"/>
      <path id="Path_370" data-name="Path 370" d="M86.642,10.723H84.7V8.34c0-4.6-4.063-8.34-9.057-8.34s-9.057,3.741-9.057,8.34v2.383H64.647a.623.623,0,0,0-.647.6V26.212a2.494,2.494,0,0,0,2.588,2.383H84.7a2.494,2.494,0,0,0,2.588-2.383V11.319A.623.623,0,0,0,86.642,10.723ZM67.881,8.34c0-3.942,3.482-7.149,7.763-7.149S83.407,4.4,83.407,8.34v2.383H82.114V8.34a6.491,6.491,0,0,0-12.938,0v2.383H67.881Zm12.938,0v2.383H70.469V8.34a5.193,5.193,0,0,1,10.351,0ZM86,26.212A1.247,1.247,0,0,1,84.7,27.4H66.588a1.247,1.247,0,0,1-1.294-1.191v-14.3H86Z" transform="translate(-64)" fill="#334a90"/>
    </g>
  </g>
</svg>
