<svg id="partners" xmlns="http://www.w3.org/2000/svg" width="25" height="25" viewBox="0 0 25 25">
  <path id="Path_364" data-name="Path 364" d="M23.959,15.369a5.137,5.137,0,0,0-1.672-1.415,3.979,3.979,0,0,0,.545-2.016V10.06A4.006,4.006,0,0,0,16.641,6.7V2.926A2.929,2.929,0,0,0,13.715,0H7.1V2.955a2.925,2.925,0,0,0,1.251,2.4V6.7A4.006,4.006,0,0,0,2.167,10.06v1.878a3.979,3.979,0,0,0,.545,2.016,5.135,5.135,0,0,0-1.672,1.415A5.042,5.042,0,0,0,0,18.452V25H25V18.452a5.042,5.042,0,0,0-1.041-3.084Zm-15.4-13.9h5.153a1.463,1.463,0,0,1,1.461,1.461V4.416H10.024A1.463,1.463,0,0,1,8.563,2.955Zm6.614,4.416V7.866a2.681,2.681,0,0,1-5.362,0V5.874q.1.007.21.007h5.153ZM5.452,23.535H1.465V18.452A3.644,3.644,0,0,1,3.716,15.1a3.99,3.99,0,0,0,1.736.779v7.658Zm0-9.274v.112a2.544,2.544,0,0,1-1.819-2.435V10.06a2.545,2.545,0,0,1,4.931-.88,4.13,4.13,0,0,0,.451.934,4.2,4.2,0,0,0-3.562,4.146Zm6.311,9.274H6.916V14.261a2.732,2.732,0,0,1,2.276-2.691,16.209,16.209,0,0,0,.158,1.785A10.131,10.131,0,0,0,11.763,18.9Zm-1.1-11.953a4.144,4.144,0,0,0,3.67,0A10.491,10.491,0,0,1,12.5,17.509,10.52,10.52,0,0,1,10.661,11.582Zm7.413,11.953H13.228V18.9a10.137,10.137,0,0,0,2.412-5.549,16.227,16.227,0,0,0,.158-1.781,2.732,2.732,0,0,1,2.276,2.691Zm-2.1-13.421a4.13,4.13,0,0,0,.448-.926l.008,0a2.545,2.545,0,0,1,4.935.869v1.878a2.544,2.544,0,0,1-1.829,2.438v-.115A4.2,4.2,0,0,0,15.977,10.114Zm7.559,13.421h-4V15.878a3.99,3.99,0,0,0,1.745-.78,3.644,3.644,0,0,1,2.251,3.354Z" transform="translate(0 0)" fill="#334a90"/>
</svg>
