<svg id="phone-call" xmlns="http://www.w3.org/2000/svg" width="28.985" height="25" viewBox="0 0 28.985 25">
  <g id="Group_3138" data-name="Group 3138">
    <path id="Path_365" data-name="Path 365" d="M26.7,16.461a18.97,18.97,0,0,1-5.2-.714,2.5,2.5,0,0,0-2.262.413L15.944,18.3a17.332,17.332,0,0,1-8.18-7.054l2.418-2.771a1.805,1.805,0,0,0,.566-2.013,12.526,12.526,0,0,1-.831-4.491A2.151,2.151,0,0,0,7.628,0H2.288A2.151,2.151,0,0,0,0,1.974C0,14.67,11.977,25,26.7,25a2.151,2.151,0,0,0,2.288-1.974V18.434A2.151,2.151,0,0,0,26.7,16.461Zm.763,6.566a.717.717,0,0,1-.763.658c-13.88,0-25.172-9.739-25.172-21.711a.717.717,0,0,1,.763-.658H7.628a.717.717,0,0,1,.763.658,13.673,13.673,0,0,0,.9,4.895.667.667,0,0,1-.262.75L6.255,10.789a.584.584,0,0,0-.07.695,18.87,18.87,0,0,0,9.486,8.182.861.861,0,0,0,.807-.061l3.756-2.455a.854.854,0,0,1,.777-.157,20.751,20.751,0,0,0,5.687.783.717.717,0,0,1,.763.658v4.592Z" fill="#334a90"/>
  </g>
</svg>
