<svg id="phone-call" xmlns="http://www.w3.org/2000/svg" width="25" height="25" viewBox="0 0 25 25">
  <g id="Group_3138" data-name="Group 3138">
    <path id="Path_365" data-name="Path 365" d="M23.026,16.461a14.27,14.27,0,0,1-4.486-.714,1.922,1.922,0,0,0-1.951.413L13.751,18.3A15.853,15.853,0,0,1,6.7,11.249L8.782,8.478A1.992,1.992,0,0,0,9.27,6.465a14.309,14.309,0,0,1-.717-4.491A1.976,1.976,0,0,0,6.579,0H1.974A1.976,1.976,0,0,0,0,1.974,23.053,23.053,0,0,0,23.026,25,1.976,1.976,0,0,0,25,23.026V18.434A1.976,1.976,0,0,0,23.026,16.461Zm.658,6.566a.659.659,0,0,1-.658.658A21.735,21.735,0,0,1,1.316,1.974a.659.659,0,0,1,.658-.658H6.579a.659.659,0,0,1,.658.658,15.62,15.62,0,0,0,.779,4.895.728.728,0,0,1-.226.75L5.395,10.789a.658.658,0,0,0-.061.695,17.264,17.264,0,0,0,8.182,8.182.655.655,0,0,0,.7-.061l3.24-2.455a.66.66,0,0,1,.67-.157,15.61,15.61,0,0,0,4.905.783.659.659,0,0,1,.658.658v4.592Z" fill="#334a90"/>
  </g>
</svg>
