<svg id="testimonials" xmlns="http://www.w3.org/2000/svg" width="100" height="100" viewBox="0 0 100 100">
  <path id="Path_4799" data-name="Path 4799" d="M91.211,0H8.789A8.777,8.777,0,0,0,0,8.789V20.508A8.777,8.777,0,0,0,8.789,29.3h3.125v8.789a2.922,2.922,0,0,0,1.817,2.7,2.8,2.8,0,0,0,3.164-.645l10.9-10.84H42.324l5.04,10.078a3.043,3.043,0,0,0,5.273,0L57.676,29.3H72.207l10.9,10.84a2.8,2.8,0,0,0,3.164.645,2.922,2.922,0,0,0,1.817-2.7V29.3h3.125A8.777,8.777,0,0,0,100,20.508V8.789A8.777,8.777,0,0,0,91.211,0Z" fill="#35eee3"/>
  <path id="Path_4800" data-name="Path 4800" d="M306,8.789V20.508a8.777,8.777,0,0,1-8.789,8.789h-3.125v8.789a2.922,2.922,0,0,1-1.817,2.7,2.8,2.8,0,0,1-3.164-.645l-10.9-10.84H263.676l-5.04,10.078A2.955,2.955,0,0,1,256,40.9V0h41.211A8.777,8.777,0,0,1,306,8.789Z" transform="translate(-206)" fill="#00bbd5"/>
  <path id="Path_4801" data-name="Path 4801" d="M35.156,387.563a2.928,2.928,0,0,1-2.93,2.93H2.93A2.928,2.928,0,0,1,0,387.563v-8.984a17.578,17.578,0,0,1,35.156,0Z" transform="translate(0 -290.492)" fill="#334a90"/>
  <path id="Path_4802" data-name="Path 4802" d="M41.719,294.438a11.719,11.719,0,1,1,11.719-11.719A11.732,11.732,0,0,1,41.719,294.438Z" transform="translate(-24.141 -218.07)" fill="#405eb9"/>
  <path id="Path_4803" data-name="Path 4803" d="M367.156,387.563a2.928,2.928,0,0,1-2.93,2.93h-29.3a2.928,2.928,0,0,1-2.93-2.93v-8.984a17.578,17.578,0,0,1,35.156,0Z" transform="translate(-267.156 -290.492)" fill="#334a90"/>
  <path id="Path_4804" data-name="Path 4804" d="M373.719,294.438a11.719,11.719,0,1,1,11.719-11.719A11.732,11.732,0,0,1,373.719,294.438Z" transform="translate(-291.297 -218.07)" fill="#405eb9"/>
  <path id="Path_4805" data-name="Path 4805" d="M171.508,361A20.531,20.531,0,0,0,151,381.508v8.984h41.016v-8.984A20.531,20.531,0,0,0,171.508,361Z" transform="translate(-121.508 -290.492)" fill="#41a0ff"/>
  <path id="Path_4806" data-name="Path 4806" d="M276.508,381.508v8.984H256V361A20.531,20.531,0,0,1,276.508,381.508Z" transform="translate(-206 -290.492)" fill="#197fe5"/>
  <path id="Path_4807" data-name="Path 4807" d="M195.648,241A14.648,14.648,0,1,0,210.3,255.648,14.654,14.654,0,0,0,195.648,241Z" transform="translate(-145.648 -193.93)" fill="#74e0ff"/>
  <path id="Path_4808" data-name="Path 4808" d="M270.648,255.648A14.654,14.654,0,0,1,256,270.3V241A14.654,14.654,0,0,1,270.648,255.648Z" transform="translate(-206 -193.93)" fill="#41a0ff"/>
</svg>
