<svg xmlns="http://www.w3.org/2000/svg" width="67" height="67" viewBox="0 0 67 67"><defs><style>.a,.b{fill:#48bcff;}.a{opacity:0.064;}</style></defs><g transform="translate(-747 -3073)"><circle class="a" cx="33.5" cy="33.5" r="33.5" transform="translate(747 3073)"/><g transform="translate(765.52 3091.52)"><path class="b" d="M25.781,4.423A15.1,15.1,0,0,0,6.556,2.65a.59.59,0,0,0,.669.972,13.921,13.921,0,1,1-3.6,3.6.59.59,0,0,0-.972-.669A15.1,15.1,0,0,0,25.781,25.781a15.1,15.1,0,0,0,0-21.358Zm0,0"/><path class="b" d="M72.638,73.231a.59.59,0,1,0-.417-1.007h0a.59.59,0,0,0,.417,1.007Zm0,0" transform="translate(-67.798 -67.8)"/><path class="b" d="M157.157,318.313a.59.59,0,0,0-1.14.305,6.087,6.087,0,0,0,11.758,0,.59.59,0,0,0-1.14-.305,4.907,4.907,0,0,1-9.479,0Zm0,0" transform="translate(-146.794 -299.123)"/><path class="b" d="M292.031,214.853a1.556,1.556,0,0,1,3.005,0,.59.59,0,0,0,.569.437.6.6,0,0,0,.153-.02.59.59,0,0,0,.417-.722,2.735,2.735,0,0,0-5.284,0,.59.59,0,1,0,1.14.305Zm0,0" transform="translate(-273.712 -199.982)"/><path class="b" d="M133.53,212.52a2.739,2.739,0,0,0-2.642,2.028.59.59,0,1,0,1.14.305,1.556,1.556,0,0,1,3.005,0,.59.59,0,0,0,.569.437.6.6,0,0,0,.153-.02.59.59,0,0,0,.417-.722A2.739,2.739,0,0,0,133.53,212.52Zm0,0" transform="translate(-123.147 -199.982)"/></g></g></svg>