<svg xmlns="http://www.w3.org/2000/svg" width="26.43" height="29.955" viewBox="0 0 26.43 29.955">
  <path id="call-center-agent" d="M47.591,19.382h-.852V18.273a6.174,6.174,0,0,0,2.58-4.177h.944a2.646,2.646,0,0,0,2.643-2.643V9.691a9.691,9.691,0,1,0-19.382,0v1.762A2.646,2.646,0,0,0,36.167,14.1h.944a6.174,6.174,0,0,0,2.58,4.177v1.109h-.852A8.849,8.849,0,0,0,30,28.222v.852a.881.881,0,0,0,.881.881H55.549a.881.881,0,0,0,.881-.881v-.852A8.849,8.849,0,0,0,47.591,19.382Zm2.672-7.048h-.881V10.572h.881a.881.881,0,0,1,0,1.762ZM43.215,1.762A7.94,7.94,0,0,1,51.109,8.95a2.632,2.632,0,0,0-.846-.14h-.944a6.167,6.167,0,0,0-12.208,0h-.944a2.632,2.632,0,0,0-.846.14,7.94,7.94,0,0,1,7.894-7.188Zm-7.929,9.691a.882.882,0,0,1,.881-.881h.881v1.762h-.881A.882.882,0,0,1,35.286,11.453Zm3.524,1.762V9.691a4.405,4.405,0,1,1,8.81,0v2.643H43.215a.881.881,0,0,0,0,1.762h4.316a4.405,4.405,0,0,1-8.721-.881Zm4.405,6.167a6.148,6.148,0,0,0,1.762-.257v1.138a1.762,1.762,0,1,1-3.524,0V19.125A6.149,6.149,0,0,0,43.215,19.382Zm7.929,8.81V25.55a.881.881,0,1,0-1.762,0v2.643H37.048V25.55a.881.881,0,1,0-1.762,0v2.643H31.762a7.085,7.085,0,0,1,7.077-7.048H39.8a3.537,3.537,0,0,0,2.532,2.532V25.55a.881.881,0,1,0,1.762,0V23.676a3.537,3.537,0,0,0,2.532-2.532h.963a7.086,7.086,0,0,1,7.077,7.048Z" transform="translate(-30)"/>
</svg>
