<svg xmlns="http://www.w3.org/2000/svg" width="118.265" height="118.181" viewBox="0 0 118.265 118.181">
  <g id="computer" transform="translate(0)">
    <path id="Path_424" data-name="Path 424" d="M51.35,29.855H41.494V20H21.783v9.855H11.928a4.928,4.928,0,0,0,0,9.855H51.35a4.928,4.928,0,0,0,0-9.855Z" transform="translate(27.494 78.471)" fill="#0d90a2"/>
    <path id="Path_425" data-name="Path 425" d="M109.642,4H8.624A8.633,8.633,0,0,0,0,12.624v61.6a8.633,8.633,0,0,0,8.624,8.624H109.642a8.633,8.633,0,0,0,8.624-8.624v-61.6A8.633,8.633,0,0,0,109.642,4Z" transform="translate(0 15.627)" fill="#00bbd5"/>
    <path id="Path_426" data-name="Path 426" d="M100.554,65.133H2V6h98.554Z" transform="translate(7.856 23.482)" fill="#fff"/>
    <path id="Path_427" data-name="Path 427" d="M31.639,20H21.783v9.855H11.928a4.928,4.928,0,0,0,0,9.855H31.639Z" transform="translate(27.494 78.471)" fill="#10717e"/>
    <path id="Path_428" data-name="Path 428" d="M59.133,4H8.624A8.633,8.633,0,0,0,0,12.624v61.6a8.633,8.633,0,0,0,8.624,8.624H59.133V72.988H9.855V13.855H59.133Z" transform="translate(0 15.627)" fill="#0d90a2"/>
    <path id="Path_429" data-name="Path 429" d="M16.761,25.544,9.793,18.576,24.576,3.793l6.968,6.968Z" transform="translate(38.464 14.814)" fill="#d3d3d3"/>
    <path id="Path_430" data-name="Path 430" d="M27.367,38.2a8.565,8.565,0,0,1-6.1-2.528L8.528,22.927a8.613,8.613,0,0,1,0-12.191l2.888-2.888a8.635,8.635,0,0,1,12.191,0L36.35,20.592a8.637,8.637,0,0,1,0,12.2l-2.888,2.888a8.57,8.57,0,0,1-6.1,2.523Z" transform="translate(23.566 20.85)" fill="#41a0ff"/>
    <path id="Path_431" data-name="Path 431" d="M32.689,32.805a8.591,8.591,0,0,1-6.1-2.518L13.85,17.544a8.637,8.637,0,0,1,0-12.2L16.738,2.46a8.833,8.833,0,0,1,12.2,0L41.672,15.2a8.619,8.619,0,0,1,0,12.2l-2.888,2.888A8.588,8.588,0,0,1,32.689,32.805Z" transform="translate(44.499 -0.016)" fill="#41a0ff"/>
    <path id="Path_432" data-name="Path 432" d="M21.335,4.159,10.159,15.335l3.484,3.484L24.819,7.643Z" transform="translate(39.902 16.252)" fill="#aca9a9"/>
    <g id="Group_3191" data-name="Group 3191" transform="translate(29.566 0)">
      <path id="Path_433" data-name="Path 433" d="M17.511,5.33a8.591,8.591,0,0,0-6.1,2.518L8.528,10.736a8.613,8.613,0,0,0,0,12.191L14.9,29.3,29.983,14.215,26.5,10.731,23.607,7.843a8.607,8.607,0,0,0-6.1-2.513Z" transform="translate(-6 20.851)" fill="#197fe5"/>
      <path id="Path_434" data-name="Path 434" d="M22.833.017a8.591,8.591,0,0,0-6.1,2.444L13.85,5.349a8.637,8.637,0,0,0,0,12.2l2.888,2.888,3.484,3.484L35.305,8.833,28.939,2.466A8.606,8.606,0,0,0,22.833.017Z" transform="translate(14.933 -0.017)" fill="#197fe5"/>
    </g>
  </g>
</svg>
