<svg xmlns="http://www.w3.org/2000/svg" width="30.072" height="29.955" viewBox="0 0 30.072 29.955">
  <g id="website_3_" data-name="website (3)" transform="translate(0 0)">
    <path id="Path_4794" data-name="Path 4794" d="M27.429,1H2.643A2.646,2.646,0,0,0,0,3.643V28.312a2.646,2.646,0,0,0,2.643,2.643H27.429a2.646,2.646,0,0,0,2.643-2.643V3.643A2.646,2.646,0,0,0,27.429,1ZM2.643,2.762H27.429a.882.882,0,0,1,.881.881V8.048H1.762V3.643A.882.882,0,0,1,2.643,2.762ZM27.429,29.193H2.643a.882.882,0,0,1-.881-.881V9.81H28.31v18.5A.882.882,0,0,1,27.429,29.193Z" transform="translate(0 -1)"/>
    <path id="Path_4795" data-name="Path 4795" d="M83.025,181H61.881a.881.881,0,0,0-.881.881v5.286a.881.881,0,0,0,.881.881H83.025a.881.881,0,0,0,.881-.881v-5.286A.881.881,0,0,0,83.025,181Zm-.881,5.286H62.762v-3.524H82.144Z" transform="translate(-57.417 -170.428)"/>
    <path id="Path_4796" data-name="Path 4796" d="M70.691,331h-8.81a.881.881,0,0,0-.881.881v5.286a.881.881,0,0,0,.881.881h8.81a.881.881,0,0,0,.881-.881v-5.286A.881.881,0,0,0,70.691,331Zm-.881,5.286H62.762v-3.524H69.81Z" transform="translate(-57.417 -311.617)"/>
    <ellipse id="Ellipse_478" data-name="Ellipse 478" cx="0.648" cy="1.296" rx="0.648" ry="1.296" transform="translate(4.157 2.415)"/>
    <ellipse id="Ellipse_479" data-name="Ellipse 479" cx="0.648" cy="1.296" rx="0.648" ry="1.296" transform="translate(6.749 2.415)"/>
    <ellipse id="Ellipse_480" data-name="Ellipse 480" cx="0.648" cy="1.296" rx="0.648" ry="1.296" transform="translate(10.636 2.415)"/>
    <path id="Path_4797" data-name="Path 4797" d="M331.881,62.762h5.286a.881.881,0,1,0,0-1.762h-5.286a.881.881,0,0,0,0,1.762Z" transform="translate(-311.559 -57.476)"/>
    <path id="Path_4798" data-name="Path 4798" d="M280.691,331h-8.81a.881.881,0,0,0-.881.881v5.286a.881.881,0,0,0,.881.881h8.81a.881.881,0,0,0,.881-.881v-5.286A.881.881,0,0,0,280.691,331Zm-.881,5.286h-7.048v-3.524h7.048Z" transform="translate(-255.083 -311.617)"/>
  </g>
</svg>
