<svg xmlns="http://www.w3.org/2000/svg" width="215.555" height="42.155" viewBox="0 0 215.555 42.155"><defs><style>.a{fill:#e5e9f2;fill-rule:evenodd;}</style></defs><g transform="translate(0)"><g transform="translate(88.383 7.441)"><path class="a" d="M83.7,14.123c-.285-.509-.635-1.944-1.231-2.057-2.855-.541-5.741-.384-7.864,2.016a7.932,7.932,0,0,0-1.74,8,4.548,4.548,0,0,0,5.4,3.159,5.368,5.368,0,0,0,4.386-4.305C83.157,18.9,83.308,16.77,83.7,14.123ZM82.593,29.1c-2.452.621-4.932,1.73-7.434,1.785-5.9.128-9.671-3.977-9.886-10.14C65.01,13.2,69.553,7.735,77.011,6.476c4.706-.795,9.249.055,13.926.959-.2,3.685-.419,7.216-.588,10.749-.238,4.979-.241,9.98-.717,14.935-.449,4.673-2.875,7.395-7.5,7.69-4.388.28-8.843-.427-13.258-.829-.432-.039-1.074-.965-1.127-1.527-.426-4.5-.4-4.437,3.963-3.546a20.541,20.541,0,0,0,5.805.579C81.6,35.124,83.137,32.831,82.593,29.1Z" transform="translate(-65.262 -6.16)"/></g><path class="a" d="M158.432,15.882c-.436-.681-.79-1.994-1.548-2.278-2.551-.954-6.3.379-8.036,2.52-1.87,2.3-2.4,6.546-.914,8.8a5.5,5.5,0,0,0,2.293,1.926,4.778,4.778,0,0,0,6.515-2.981A62.64,62.64,0,0,0,158.432,15.882Zm.083-7.362c0-2.086.038-3.907-.014-5.726-.033-1.124.406-1.619,1.583-1.576a40.328,40.328,0,0,0,4.177-.007c1.547-.1,1.877.575,1.8,1.945-.409,7.319-.752,14.641-1.108,21.963-.085,1.762-.126,3.527-.2,5.291-.02.472-.041,1.339-.146,1.352a39.018,39.018,0,0,1-5.887.436c-.506-.016-.978-1.124-1.576-1.868a10.8,10.8,0,0,1-8.5,2.379c-5.206-.707-8.638-4.3-8.93-9.455-.563-9.923,6.15-16.009,16.549-15C156.87,8.312,157.481,8.4,158.514,8.52Z" transform="translate(49.485 -0.476)"/><g transform="translate(0 0)"><path class="a" d="M15.646,24.715c1.9-3.957,3.566-7.406,5.21-10.866C22.716,9.935,24.531,6,26.432,2.1c.251-.514.877-1.165,1.361-1.192C30.049.786,32.318.856,34.938.856A16.7,16.7,0,0,1,34.2,3.144c-4.673,9.278-9.387,18.537-14.043,27.824a2.2,2.2,0,0,1-2.359,1.5c-2.331-.138-5.206.674-6.849-.419-1.509-1-1.709-3.992-2.464-6.113Q4.445,14.567.418,3.194C-.346,1.039-.216.852,2.114.862c1.858.007,4.183-.6,5.44.286,1.22.861,1.364,3.27,1.943,5.011C11.493,12.152,13.473,18.15,15.646,24.715Z" transform="translate(0 -0.666)"/></g><path class="a" d="M53.9,8.975c3.278-2.371,7.366-2.7,11.655-1.344,2.671.842,4.41,2.676,4.405,5.457-.01,5.508-.255,11.017-.487,16.521-.017.4-.645.953-1.106,1.116a5.672,5.672,0,0,1-1.838.037c-4.5-.042-4.512-.042-4.318-4.527.125-2.886.3-5.771.429-8.657.083-1.853-.265-3.494-2.294-4.291a4.945,4.945,0,0,0-5.793,1.328,9.933,9.933,0,0,0-1.845,4.353c-.454,3.322-.6,6.691-.723,10.047-.054,1.433-.628,1.794-2.006,1.794-5.59,0-5.536.04-5.18-5.489q.5-7.848.772-15.71c.049-1.443.423-2.122,2-1.977,1.158.107,2.358-.118,3.494.067A13.273,13.273,0,0,1,53.9,8.975Z" transform="translate(15.824 1.521)"/><path class="a" d="M104.131,28.185a12.393,12.393,0,0,1-11.557,2.026c-3.23-.942-4.923-3.058-4.865-6.423.09-5.233.43-10.464.776-15.689.029-.437.87-1.105,1.392-1.166,1.393-.164,2.821,0,4.229-.073,1.283-.067,1.652.521,1.558,1.715-.277,3.524-.576,7.048-.747,10.578-.187,3.872.687,5.155,3.5,5.52a5.011,5.011,0,0,0,5.734-4.714c.437-3.637.6-7.314.725-10.979.051-1.522.381-2.162,2.053-2.144,5.127.056,5.133-.015,4.893,5.158-.255,5.5-.551,11-.75,16.509-.047,1.3-.439,1.89-1.767,1.786a21.829,21.829,0,0,0-2.822-.014C105.145,30.345,103.825,30.457,104.131,28.185Z" transform="translate(31.074 1.521)"/><path class="a" d="M122.869,19.4c-2.394.842-4.575,1.54-6.7,2.384-1.289.513-2.4,1.625-1.727,3.019.414.862,1.777,1.39,2.817,1.738a4.139,4.139,0,0,0,2.39-.213c1.808-.585,1.766.313,1.517,1.685-.366,2.016-1.208,3.275-3.459,3.076-1.538-.136-3.108.048-4.638-.134a6.09,6.09,0,0,1-5.641-5.119c-.693-2.87.141-5.691,2.809-7.14a56.188,56.188,0,0,1,8.1-3.068,15.979,15.979,0,0,0,2.889-.876c.711-.426,1.693-1.453,1.576-1.994-.164-.769-1.242-1.911-1.9-1.889a34.794,34.794,0,0,0-7.538.959c-3.292.852-3.118,1.044-2.746-2.416a2.256,2.256,0,0,1,2.172-2.367c4-.757,7.967-1.488,12.045-.615,3.894.833,5.581,2.889,5.444,6.934-.173,5.126-.463,10.249-.6,15.376-.041,1.575-.651,2.131-2.1,1.945a8.564,8.564,0,0,0-1.013-.024c-4.24-.042-4.25-.042-4.013-4.464.06-1.106.238-2.206.294-3.312C122.91,21.851,122.869,20.815,122.869,19.4Z" transform="translate(37.978 1.235)"/><path class="a" d="M40.038,19.4c-2.392.841-4.573,1.535-6.7,2.38-1.287.512-2.4,1.619-1.731,3.018.415.863,1.773,1.421,2.816,1.738a4.806,4.806,0,0,0,2.585-.269c1.328-.4,1.594.144,1.408,1.333-.443,2.826-.79,3.241-3.536,3.44a24.662,24.662,0,0,1-4.639-.087A6.092,6.092,0,0,1,24.6,25.838c-.7-2.878.133-5.695,2.8-7.142a55.994,55.994,0,0,1,8.1-3.069,19.02,19.02,0,0,0,3.083-.942c.657-.374,1.5-1.367,1.4-1.931-.123-.724-1.118-1.85-1.713-1.835a34.386,34.386,0,0,0-7.54.848c-3.477.884-3.339,1.081-2.911-2.56a2.037,2.037,0,0,1,1.939-2.1c4.056-.821,8.094-1.553,12.241-.674,3.9.826,5.582,2.88,5.446,6.929-.172,5.126-.462,10.248-.6,15.375-.042,1.568-.641,2.137-2.092,1.946a8.39,8.39,0,0,0-1.013-.025c-4.222-.042-4.232-.042-4.01-4.464.056-1.106.236-2.2.291-3.311C40.078,21.85,40.038,20.814,40.038,19.4Z" transform="translate(8.632 1.235)"/><path class="a" d="M134.959,8.169c2.4-.512,4.351-1.014,6.33-1.31.956-.143,1.648.387,1.533,1.571a11.985,11.985,0,0,0,.035,1.619c.115,2.881.116,2.881-2.581,2.8a4.725,4.725,0,0,0-5.049,4.23,95.6,95.6,0,0,0-.72,11.485c-.024,1.8-.516,2.31-2.27,2.258-4.959-.148-4.889-.072-4.66-5.178.241-5.392.371-10.791.455-16.188.02-1.368.368-2.012,1.807-1.9,1.192.09,2.4-.073,3.589.051A4.9,4.9,0,0,1,134.959,8.169Z" transform="translate(45.17 1.521)"/></g></svg>