<svg xmlns="http://www.w3.org/2000/svg" width="123.068" height="115.376" viewBox="0 0 123.068 115.376">
  <g id="coding_1_" data-name="coding (1)" transform="translate(0)">
    <path id="Path_4716" data-name="Path 4716" d="M241,391h7.211v21.633H241Z" transform="translate(-183.071 -300.862)" fill="#d5e8fe"/>
    <path id="Path_4717" data-name="Path 4717" d="M256,391h3.606v21.633H256Z" transform="translate(-194.466 -300.862)" fill="#b5dbff"/>
    <path id="Path_4718" data-name="Path 4718" d="M0,16v93.743H123.068V16Z" transform="translate(0 -16)" fill="#334a90"/>
    <path id="Path_4719" data-name="Path 4719" d="M256,16h61.534v93.743H256Z" transform="translate(-194.466 -16)" fill="#25376f"/>
    <path id="Path_4720" data-name="Path 4720" d="M121,466h64.9v7.211H121Z" transform="translate(-91.915 -357.835)" fill="#edf5ff"/>
    <path id="Path_4721" data-name="Path 4721" d="M256,466h32.45v7.211H256Z" transform="translate(-194.466 -357.835)" fill="#d5e8fe"/>
    <g id="Group_3369" data-name="Group 3369" transform="translate(14.533 49.595)">
      <path id="Path_4722" data-name="Path 4722" d="M236.651,243.157l-10.961,9.374-4.831,4.182-4.76-5.48,9.446-8.076L216.1,235.08l4.76-5.48,4.831,4.182Z" transform="translate(-178.688 -227.853)" fill="#64e1dc"/>
      <path id="Path_4723" data-name="Path 4723" d="M76.271,256.723,60.458,243.17l15.813-13.552,4.69,5.472-9.426,8.081,9.426,8.081Z" transform="translate(-60.458 -227.866)" fill="#64e1dc"/>
      <path id="Path_4724" data-name="Path 4724" d="M0,0H29.732V7.207H0Z" transform="translate(21.854 28.84) rotate(-75.992)" fill="#64e1dc"/>
    </g>
    <path id="Path_4725" data-name="Path 4725" d="M181,106h7.211v7.211H181Z" transform="translate(-137.493 -84.367)" fill="#74e0ff"/>
    <path id="Path_4726" data-name="Path 4726" d="M241,106h7.211v7.211H241Z" transform="translate(-183.071 -84.367)" fill="#74e0ff"/>
    <path id="Path_4727" data-name="Path 4727" d="M361,166h7.211v7.211H361Z" transform="translate(-274.227 -129.945)" fill="#35eee3"/>
    <path id="Path_4728" data-name="Path 4728" d="M421,166h7.211v7.211H421Z" transform="translate(-319.805 -129.945)" fill="#35eee3"/>
    <path id="Path_4729" data-name="Path 4729" d="M361,286h7.211v7.211H361Z" transform="translate(-274.227 -221.101)" fill="#00c8c8"/>
    <path id="Path_4730" data-name="Path 4730" d="M421,286h7.211v7.211H421Z" transform="translate(-319.805 -221.101)" fill="#00c8c8"/>
    <path id="Path_4731" data-name="Path 4731" d="M301,106h36.055v7.211H301Z" transform="translate(-228.649 -84.367)" fill="#00c8c8"/>
    <path id="Path_4732" data-name="Path 4732" d="M331,226h7.211v7.211H331Z" transform="translate(-251.438 -175.523)" fill="#74e0ff"/>
    <path id="Path_4733" data-name="Path 4733" d="M391,226h14.422v7.211H391Z" transform="translate(-297.016 -175.523)" fill="#74e0ff"/>
    <path id="Path_4734" data-name="Path 4734" d="M61,106H82.633v7.211H61Z" transform="translate(-46.337 -84.367)" fill="#74e0ff"/>
    <path id="Path_4735" data-name="Path 4735" d="M181,166h36.055v7.211H181Z" transform="translate(-137.493 -129.945)" fill="#41a0ff"/>
    <path id="Path_4736" data-name="Path 4736" d="M91,166h14.422v7.211H91Z" transform="translate(-69.126 -129.945)" fill="#35eee3"/>
    <path id="Path_4737" data-name="Path 4737" d="M256,106h3.606v7.211H256Z" transform="translate(-194.466 -84.367)" fill="#43bde0"/>
    <path id="Path_4738" data-name="Path 4738" d="M256,247l10.961,9.374L256,265.749Z" transform="translate(-194.466 -191.475)" fill="#00c8c8"/>
    <path id="Path_4739" data-name="Path 4739" d="M256,166h18.028v7.211H256Z" transform="translate(-194.466 -129.945)" fill="#2586e6"/>
  </g>
</svg>
