<svg xmlns="http://www.w3.org/2000/svg" width="97.736" height="97.736" viewBox="0 0 97.736 97.736">
  <g id="webinar" transform="translate(0 0)">
    <path id="Path_471" data-name="Path 471" d="M16,20h91.628V77.267H16Z" transform="translate(-12.946 -16.182)" fill="#fff"/>
    <path id="Path_472" data-name="Path 472" d="M256,20h45.814V77.267H256Z" transform="translate(-207.132 -16.182)" fill="#f8f8f8"/>
    <g id="Group_3194" data-name="Group 3194" transform="translate(11.644 28.634)">
      <path id="Path_473" data-name="Path 473" d="M86.77,251H63.863A2.863,2.863,0,0,1,61,248.135v-3.818a14.317,14.317,0,0,1,28.634,0v3.818A2.863,2.863,0,0,1,86.77,251Z" transform="translate(-61 -214.729)" fill="#35eee3"/>
      <path id="Path_474" data-name="Path 474" d="M147.453,251a2.863,2.863,0,0,0,2.863-2.863v-3.818A14.333,14.333,0,0,0,136,230v21Z" transform="translate(-121.683 -214.729)" fill="#29bab2"/>
      <path id="Path_475" data-name="Path 475" d="M91.5,171A10.5,10.5,0,1,1,102,160.5,10.511,10.511,0,0,1,91.5,171Z" transform="translate(-77.182 -150)" fill="#ffc3aa"/>
      <path id="Path_476" data-name="Path 476" d="M146.5,160.5A10.511,10.511,0,0,0,136,150v21A10.511,10.511,0,0,0,146.5,160.5Z" transform="translate(-121.683 -150)" fill="#faaa8c"/>
    </g>
    <path id="Path_477" data-name="Path 477" d="M184.277,402.164l-1.673-2.092a24.433,24.433,0,0,1-5.335-15.209A2.863,2.863,0,0,0,174.406,382H151.5a2.863,2.863,0,0,0-2.863,2.863,24.434,24.434,0,0,1-5.335,15.209l-1.673,2.091a2.864,2.864,0,0,0-.345,3.029h43.34A2.864,2.864,0,0,0,184.277,402.164Z" transform="translate(-114.084 -309.079)" fill="#0d90a2"/>
    <path id="Path_478" data-name="Path 478" d="M275.652,400.072a24.434,24.434,0,0,1-5.335-15.209A2.863,2.863,0,0,0,267.453,382H256v23.193h21.67a2.864,2.864,0,0,0-.345-3.029Z" transform="translate(-207.132 -309.079)" fill="#087584"/>
    <path id="Path_479" data-name="Path 479" d="M157.313,487.727h-53.45a2.863,2.863,0,0,1,0-5.727h53.45a2.863,2.863,0,0,1,0,5.727Z" transform="translate(-81.72 -389.99)" fill="#00bbd5"/>
    <path id="Path_480" data-name="Path 480" d="M282.725,482H256v5.727h26.725a2.863,2.863,0,1,0,0-5.727Z" transform="translate(-207.132 -389.99)" fill="#0d90a2"/>
    <path id="Path_481" data-name="Path 481" d="M89.146,0H8.59A8.6,8.6,0,0,0,0,8.59V70.057a8.6,8.6,0,0,0,8.59,8.59H89.146a8.6,8.6,0,0,0,8.59-8.59V8.59A8.6,8.6,0,0,0,89.146,0ZM92.01,59.176H5.727V8.59A2.867,2.867,0,0,1,8.59,5.727H89.146A2.867,2.867,0,0,1,92.01,8.59Z" transform="translate(0 0)" fill="#00bbd5"/>
    <path id="Path_482" data-name="Path 482" d="M296.278,0H256V5.727h40.278a2.867,2.867,0,0,1,2.863,2.863V59.176H256V78.647h40.278a8.6,8.6,0,0,0,8.59-8.59V8.59A8.6,8.6,0,0,0,296.278,0Z" transform="translate(-207.132 0)" fill="#0d90a2"/>
    <path id="Path_483" data-name="Path 483" d="M213.495,100.087H175.316a2.863,2.863,0,0,1-2.863-2.863V75.271h-8.59a2.863,2.863,0,0,1-1.833-5.063l11.453-9.545A2.864,2.864,0,0,1,175.316,60h38.178a2.863,2.863,0,0,1,2.863,2.863v34.36A2.863,2.863,0,0,1,213.495,100.087Z" transform="translate(-130.266 -48.546)" fill="#e3f9ff"/>
    <path id="Path_484" data-name="Path 484" d="M290.36,60H256v40.087h34.36a2.863,2.863,0,0,0,2.863-2.863V62.863A2.863,2.863,0,0,0,290.36,60Z" transform="translate(-207.132 -48.546)" fill="#aaedff"/>
    <g id="Group_3195" data-name="Group 3195" transform="translate(53.64 22.907)">
      <path id="Path_485" data-name="Path 485" d="M299.135,125.727H283.863a2.863,2.863,0,0,1,0-5.727h15.271a2.863,2.863,0,1,1,0,5.727Z" transform="translate(-281 -120)" fill="#334a90"/>
      <path id="Path_486" data-name="Path 486" d="M299.135,185.727H283.863a2.863,2.863,0,0,1,0-5.727h15.271a2.863,2.863,0,1,1,0,5.727Z" transform="translate(-281 -168.547)" fill="#334a90"/>
    </g>
  </g>
</svg>
