<svg id="writing" xmlns="http://www.w3.org/2000/svg" width="46.804" height="52.646" viewBox="0 0 46.804 52.646">
  <g id="Group_3136" data-name="Group 3136">
    <g id="Group_3135" data-name="Group 3135">
      <path id="Path_336" data-name="Path 336" d="M130.482,201.953A1.953,1.953,0,0,0,128.529,200H108.412a1.953,1.953,0,0,0,0,3.906h20.117A1.953,1.953,0,0,0,130.482,201.953Z" transform="translate(-98.648 -180.469)" fill="#00bbd5"/>
      <path id="Path_337" data-name="Path 337" d="M108.412,280a1.953,1.953,0,0,0,0,3.906H120.63a1.953,1.953,0,0,0,0-3.906Z" transform="translate(-98.648 -252.656)" fill="#00bbd5"/>
      <path id="Path_338" data-name="Path 338" d="M40.915,46.094H34.382a3.911,3.911,0,0,1-3.906-3.906V7.813a3.911,3.911,0,0,1,3.906-3.906H58.4A3.911,3.911,0,0,1,62.3,7.813V19.824a1.953,1.953,0,1,0,3.906,0V7.813A7.821,7.821,0,0,0,58.4,0H34.382A7.821,7.821,0,0,0,26.57,7.813V42.188A7.821,7.821,0,0,0,34.382,50h6.532a1.953,1.953,0,1,0,0-3.906Z" transform="translate(-26.57)" fill="#00bbd5"/>
      <path id="Path_339" data-name="Path 339" d="M269.312,274.046a6.919,6.919,0,0,0-9.773,0l-12.65,12.622a2.306,2.306,0,0,0-.577.962l-2.755,9.069a2.3,2.3,0,0,0,2.82,2.89l9.3-2.576a2.3,2.3,0,0,0,1.013-.59l12.623-12.6A6.92,6.92,0,0,0,269.312,274.046Zm-15.45,18.686-4.679,1.3,1.369-4.508L259.088,281l3.259,3.259Zm12.193-12.17-.446.445-3.258-3.258.445-.444a2.3,2.3,0,0,1,3.26,3.257Z" transform="translate(-224.529 -247.024)" fill="#00bbd5"/>
      <path id="Path_340" data-name="Path 340" d="M128.529,120H108.412a1.953,1.953,0,1,0,0,3.906h20.117a1.953,1.953,0,0,0,0-3.906Z" transform="translate(-98.648 -108.281)" fill="#00bbd5"/>
    </g>
  </g>
</svg>
